<mxfile host="app.diagrams.net" agent="Mozilla/5.0 (Windows NT 10.0; Win64; x64) AppleWebKit/537.36 (KHTML, like Gecko) Chrome/132.0.0.0 Safari/537.36" version="26.0.11">
  <diagram name="Seite-1" id="W5wUdby61jBAW_gwYEQ2">
    <mxGraphModel dx="3354" dy="1258" grid="1" gridSize="10" guides="1" tooltips="1" connect="1" arrows="1" fold="1" page="1" pageScale="1" pageWidth="827" pageHeight="1169" math="0" shadow="0">
      <root>
        <mxCell id="0" />
        <mxCell id="1" parent="0" />
        <mxCell id="zytnqdTkWcXbyPXpA95l-1" value="Assets Endpoints" style="shape=table;startSize=30;container=1;collapsible=0;childLayout=tableLayout;strokeColor=default;fontSize=16;fontStyle=1" parent="1" vertex="1">
          <mxGeometry width="1170" height="1180" as="geometry" />
        </mxCell>
        <mxCell id="zytnqdTkWcXbyPXpA95l-2" value="" style="shape=tableRow;horizontal=0;startSize=0;swimlaneHead=0;swimlaneBody=0;strokeColor=inherit;top=0;left=0;bottom=0;right=0;collapsible=0;dropTarget=0;fillColor=none;points=[[0,0.5],[1,0.5]];portConstraint=eastwest;fontSize=16;" parent="zytnqdTkWcXbyPXpA95l-1" vertex="1">
          <mxGeometry y="30" width="1170" height="50" as="geometry" />
        </mxCell>
        <mxCell id="zytnqdTkWcXbyPXpA95l-3" value="Endpoint" style="shape=partialRectangle;html=1;whiteSpace=wrap;connectable=0;strokeColor=#6c8ebf;overflow=hidden;fillColor=#dae8fc;top=0;left=0;bottom=0;right=0;pointerEvents=1;fontSize=16;fontStyle=1" parent="zytnqdTkWcXbyPXpA95l-2" vertex="1">
          <mxGeometry width="192" height="50" as="geometry">
            <mxRectangle width="192" height="50" as="alternateBounds" />
          </mxGeometry>
        </mxCell>
        <mxCell id="zytnqdTkWcXbyPXpA95l-4" value="Route" style="shape=partialRectangle;html=1;whiteSpace=wrap;connectable=0;strokeColor=#6c8ebf;overflow=hidden;fillColor=#dae8fc;top=0;left=0;bottom=0;right=0;pointerEvents=1;fontSize=16;fontStyle=1" parent="zytnqdTkWcXbyPXpA95l-2" vertex="1">
          <mxGeometry x="192" width="288" height="50" as="geometry">
            <mxRectangle width="288" height="50" as="alternateBounds" />
          </mxGeometry>
        </mxCell>
        <mxCell id="zytnqdTkWcXbyPXpA95l-17" value="Method" style="shape=partialRectangle;html=1;whiteSpace=wrap;connectable=0;strokeColor=#6c8ebf;overflow=hidden;fillColor=#dae8fc;top=0;left=0;bottom=0;right=0;pointerEvents=1;fontSize=16;fontStyle=1" parent="zytnqdTkWcXbyPXpA95l-2" vertex="1">
          <mxGeometry x="480" width="95" height="50" as="geometry">
            <mxRectangle width="95" height="50" as="alternateBounds" />
          </mxGeometry>
        </mxCell>
        <mxCell id="zytnqdTkWcXbyPXpA95l-5" value="Roles" style="shape=partialRectangle;html=1;whiteSpace=wrap;connectable=0;strokeColor=#6c8ebf;overflow=hidden;fillColor=#dae8fc;top=0;left=0;bottom=0;right=0;pointerEvents=1;fontSize=16;fontStyle=1" parent="zytnqdTkWcXbyPXpA95l-2" vertex="1">
          <mxGeometry x="575" width="215" height="50" as="geometry">
            <mxRectangle width="215" height="50" as="alternateBounds" />
          </mxGeometry>
        </mxCell>
        <mxCell id="zytnqdTkWcXbyPXpA95l-14" value="Response" style="shape=partialRectangle;html=1;whiteSpace=wrap;connectable=0;strokeColor=#6c8ebf;overflow=hidden;fillColor=#dae8fc;top=0;left=0;bottom=0;right=0;pointerEvents=1;fontSize=16;fontStyle=1" parent="zytnqdTkWcXbyPXpA95l-2" vertex="1">
          <mxGeometry x="790" width="90" height="50" as="geometry">
            <mxRectangle width="90" height="50" as="alternateBounds" />
          </mxGeometry>
        </mxCell>
        <mxCell id="CHGXnOnzoU2PrAo-i4mN-1" value="Body" style="shape=partialRectangle;html=1;whiteSpace=wrap;connectable=0;strokeColor=#6c8ebf;overflow=hidden;fillColor=#dae8fc;top=0;left=0;bottom=0;right=0;pointerEvents=1;fontSize=16;fontStyle=1" vertex="1" parent="zytnqdTkWcXbyPXpA95l-2">
          <mxGeometry x="880" width="290" height="50" as="geometry">
            <mxRectangle width="290" height="50" as="alternateBounds" />
          </mxGeometry>
        </mxCell>
        <mxCell id="zytnqdTkWcXbyPXpA95l-6" value="" style="shape=tableRow;horizontal=0;startSize=0;swimlaneHead=0;swimlaneBody=0;strokeColor=inherit;top=0;left=0;bottom=0;right=0;collapsible=0;dropTarget=0;fillColor=none;points=[[0,0.5],[1,0.5]];portConstraint=eastwest;fontSize=16;" parent="zytnqdTkWcXbyPXpA95l-1" vertex="1">
          <mxGeometry y="80" width="1170" height="87" as="geometry" />
        </mxCell>
        <mxCell id="zytnqdTkWcXbyPXpA95l-7" value="Get Assets" style="shape=partialRectangle;html=1;whiteSpace=wrap;connectable=0;strokeColor=inherit;overflow=hidden;fillColor=none;top=0;left=0;bottom=0;right=0;pointerEvents=1;fontSize=16;align=left;" parent="zytnqdTkWcXbyPXpA95l-6" vertex="1">
          <mxGeometry width="192" height="87" as="geometry">
            <mxRectangle width="192" height="87" as="alternateBounds" />
          </mxGeometry>
        </mxCell>
        <mxCell id="zytnqdTkWcXbyPXpA95l-8" value="/assets" style="shape=partialRectangle;html=1;whiteSpace=wrap;connectable=0;strokeColor=inherit;overflow=hidden;fillColor=none;top=0;left=0;bottom=0;right=0;pointerEvents=1;fontSize=16;align=left;" parent="zytnqdTkWcXbyPXpA95l-6" vertex="1">
          <mxGeometry x="192" width="288" height="87" as="geometry">
            <mxRectangle width="288" height="87" as="alternateBounds" />
          </mxGeometry>
        </mxCell>
        <mxCell id="zytnqdTkWcXbyPXpA95l-18" value="GET" style="shape=partialRectangle;html=1;whiteSpace=wrap;connectable=0;strokeColor=inherit;overflow=hidden;fillColor=none;top=0;left=0;bottom=0;right=0;pointerEvents=1;fontSize=16;" parent="zytnqdTkWcXbyPXpA95l-6" vertex="1">
          <mxGeometry x="480" width="95" height="87" as="geometry">
            <mxRectangle width="95" height="87" as="alternateBounds" />
          </mxGeometry>
        </mxCell>
        <mxCell id="zytnqdTkWcXbyPXpA95l-9" value="&lt;ul&gt;&lt;li&gt;Admin&lt;/li&gt;&lt;li style=&quot;&quot;&gt;Asset Manager&lt;/li&gt;&lt;li style=&quot;&quot;&gt;Auditor&lt;/li&gt;&lt;/ul&gt;" style="shape=partialRectangle;html=1;whiteSpace=wrap;connectable=0;strokeColor=inherit;overflow=hidden;fillColor=none;top=0;left=0;bottom=0;right=0;pointerEvents=1;fontSize=16;align=left;verticalAlign=bottom;" parent="zytnqdTkWcXbyPXpA95l-6" vertex="1">
          <mxGeometry x="575" width="215" height="87" as="geometry">
            <mxRectangle width="215" height="87" as="alternateBounds" />
          </mxGeometry>
        </mxCell>
        <mxCell id="zytnqdTkWcXbyPXpA95l-15" value="200(JSON), 401" style="shape=partialRectangle;html=1;whiteSpace=wrap;connectable=0;strokeColor=inherit;overflow=hidden;fillColor=none;top=0;left=0;bottom=0;right=0;pointerEvents=1;fontSize=16;align=left;" parent="zytnqdTkWcXbyPXpA95l-6" vertex="1">
          <mxGeometry x="790" width="90" height="87" as="geometry">
            <mxRectangle width="90" height="87" as="alternateBounds" />
          </mxGeometry>
        </mxCell>
        <mxCell id="CHGXnOnzoU2PrAo-i4mN-2" style="shape=partialRectangle;html=1;whiteSpace=wrap;connectable=0;strokeColor=inherit;overflow=hidden;fillColor=none;top=0;left=0;bottom=0;right=0;pointerEvents=1;fontSize=16;align=left;" vertex="1" parent="zytnqdTkWcXbyPXpA95l-6">
          <mxGeometry x="880" width="290" height="87" as="geometry">
            <mxRectangle width="290" height="87" as="alternateBounds" />
          </mxGeometry>
        </mxCell>
        <mxCell id="zytnqdTkWcXbyPXpA95l-10" value="" style="shape=tableRow;horizontal=0;startSize=0;swimlaneHead=0;swimlaneBody=0;strokeColor=inherit;top=0;left=0;bottom=0;right=0;collapsible=0;dropTarget=0;fillColor=none;points=[[0,0.5],[1,0.5]];portConstraint=eastwest;fontSize=16;" parent="zytnqdTkWcXbyPXpA95l-1" vertex="1">
          <mxGeometry y="167" width="1170" height="130" as="geometry" />
        </mxCell>
        <mxCell id="zytnqdTkWcXbyPXpA95l-11" value="Get Department Assets" style="shape=partialRectangle;html=1;whiteSpace=wrap;connectable=0;strokeColor=inherit;overflow=hidden;fillColor=none;top=0;left=0;bottom=0;right=0;pointerEvents=1;fontSize=16;align=left;" parent="zytnqdTkWcXbyPXpA95l-10" vertex="1">
          <mxGeometry width="192" height="130" as="geometry">
            <mxRectangle width="192" height="130" as="alternateBounds" />
          </mxGeometry>
        </mxCell>
        <mxCell id="zytnqdTkWcXbyPXpA95l-12" value="/assets/department/{departmentID}" style="shape=partialRectangle;html=1;whiteSpace=wrap;connectable=0;strokeColor=inherit;overflow=hidden;fillColor=none;top=0;left=0;bottom=0;right=0;pointerEvents=1;fontSize=16;align=left;" parent="zytnqdTkWcXbyPXpA95l-10" vertex="1">
          <mxGeometry x="192" width="288" height="130" as="geometry">
            <mxRectangle width="288" height="130" as="alternateBounds" />
          </mxGeometry>
        </mxCell>
        <mxCell id="zytnqdTkWcXbyPXpA95l-19" value="GET" style="shape=partialRectangle;html=1;whiteSpace=wrap;connectable=0;strokeColor=inherit;overflow=hidden;fillColor=none;top=0;left=0;bottom=0;right=0;pointerEvents=1;fontSize=16;" parent="zytnqdTkWcXbyPXpA95l-10" vertex="1">
          <mxGeometry x="480" width="95" height="130" as="geometry">
            <mxRectangle width="95" height="130" as="alternateBounds" />
          </mxGeometry>
        </mxCell>
        <mxCell id="zytnqdTkWcXbyPXpA95l-13" value="&lt;ul style=&quot;&quot;&gt;&lt;li&gt;Admin&lt;/li&gt;&lt;li&gt;Asset Manager&lt;/li&gt;&lt;li&gt;Auditor&lt;/li&gt;&lt;li&gt;Department Manager&lt;/li&gt;&lt;/ul&gt;" style="shape=partialRectangle;html=1;whiteSpace=wrap;connectable=0;strokeColor=inherit;overflow=hidden;fillColor=none;top=0;left=0;bottom=0;right=0;pointerEvents=1;fontSize=16;align=left;" parent="zytnqdTkWcXbyPXpA95l-10" vertex="1">
          <mxGeometry x="575" width="215" height="130" as="geometry">
            <mxRectangle width="215" height="130" as="alternateBounds" />
          </mxGeometry>
        </mxCell>
        <mxCell id="zytnqdTkWcXbyPXpA95l-16" value="200(JSON), 404, 401" style="shape=partialRectangle;html=1;whiteSpace=wrap;connectable=0;strokeColor=inherit;overflow=hidden;fillColor=none;top=0;left=0;bottom=0;right=0;pointerEvents=1;fontSize=16;align=left;" parent="zytnqdTkWcXbyPXpA95l-10" vertex="1">
          <mxGeometry x="790" width="90" height="130" as="geometry">
            <mxRectangle width="90" height="130" as="alternateBounds" />
          </mxGeometry>
        </mxCell>
        <mxCell id="CHGXnOnzoU2PrAo-i4mN-3" style="shape=partialRectangle;html=1;whiteSpace=wrap;connectable=0;strokeColor=inherit;overflow=hidden;fillColor=none;top=0;left=0;bottom=0;right=0;pointerEvents=1;fontSize=16;align=left;" vertex="1" parent="zytnqdTkWcXbyPXpA95l-10">
          <mxGeometry x="880" width="290" height="130" as="geometry">
            <mxRectangle width="290" height="130" as="alternateBounds" />
          </mxGeometry>
        </mxCell>
        <mxCell id="zytnqdTkWcXbyPXpA95l-20" style="shape=tableRow;horizontal=0;startSize=0;swimlaneHead=0;swimlaneBody=0;strokeColor=inherit;top=0;left=0;bottom=0;right=0;collapsible=0;dropTarget=0;fillColor=none;points=[[0,0.5],[1,0.5]];portConstraint=eastwest;fontSize=16;" parent="zytnqdTkWcXbyPXpA95l-1" vertex="1">
          <mxGeometry y="297" width="1170" height="130" as="geometry" />
        </mxCell>
        <mxCell id="zytnqdTkWcXbyPXpA95l-21" value="Get Employee Assets" style="shape=partialRectangle;html=1;whiteSpace=wrap;connectable=0;strokeColor=inherit;overflow=hidden;fillColor=none;top=0;left=0;bottom=0;right=0;pointerEvents=1;fontSize=16;align=left;" parent="zytnqdTkWcXbyPXpA95l-20" vertex="1">
          <mxGeometry width="192" height="130" as="geometry">
            <mxRectangle width="192" height="130" as="alternateBounds" />
          </mxGeometry>
        </mxCell>
        <mxCell id="zytnqdTkWcXbyPXpA95l-22" value="/assets/employee/{employeeID}" style="shape=partialRectangle;html=1;whiteSpace=wrap;connectable=0;strokeColor=inherit;overflow=hidden;fillColor=none;top=0;left=0;bottom=0;right=0;pointerEvents=1;fontSize=16;align=left;" parent="zytnqdTkWcXbyPXpA95l-20" vertex="1">
          <mxGeometry x="192" width="288" height="130" as="geometry">
            <mxRectangle width="288" height="130" as="alternateBounds" />
          </mxGeometry>
        </mxCell>
        <mxCell id="zytnqdTkWcXbyPXpA95l-23" value="GET" style="shape=partialRectangle;html=1;whiteSpace=wrap;connectable=0;strokeColor=inherit;overflow=hidden;fillColor=none;top=0;left=0;bottom=0;right=0;pointerEvents=1;fontSize=16;" parent="zytnqdTkWcXbyPXpA95l-20" vertex="1">
          <mxGeometry x="480" width="95" height="130" as="geometry">
            <mxRectangle width="95" height="130" as="alternateBounds" />
          </mxGeometry>
        </mxCell>
        <mxCell id="zytnqdTkWcXbyPXpA95l-24" value="&lt;ul style=&quot;&quot;&gt;&lt;li&gt;Admin&lt;/li&gt;&lt;li&gt;Asset Manager&lt;/li&gt;&lt;li&gt;Auditor&lt;/li&gt;&lt;li&gt;Department Manager&lt;/li&gt;&lt;li&gt;Employee&lt;/li&gt;&lt;/ul&gt;" style="shape=partialRectangle;html=1;whiteSpace=wrap;connectable=0;strokeColor=inherit;overflow=hidden;fillColor=none;top=0;left=0;bottom=0;right=0;pointerEvents=1;fontSize=16;align=left;" parent="zytnqdTkWcXbyPXpA95l-20" vertex="1">
          <mxGeometry x="575" width="215" height="130" as="geometry">
            <mxRectangle width="215" height="130" as="alternateBounds" />
          </mxGeometry>
        </mxCell>
        <mxCell id="zytnqdTkWcXbyPXpA95l-25" value="200(JSON), 404, 401" style="shape=partialRectangle;html=1;whiteSpace=wrap;connectable=0;strokeColor=inherit;overflow=hidden;fillColor=none;top=0;left=0;bottom=0;right=0;pointerEvents=1;fontSize=16;align=left;" parent="zytnqdTkWcXbyPXpA95l-20" vertex="1">
          <mxGeometry x="790" width="90" height="130" as="geometry">
            <mxRectangle width="90" height="130" as="alternateBounds" />
          </mxGeometry>
        </mxCell>
        <mxCell id="CHGXnOnzoU2PrAo-i4mN-4" style="shape=partialRectangle;html=1;whiteSpace=wrap;connectable=0;strokeColor=inherit;overflow=hidden;fillColor=none;top=0;left=0;bottom=0;right=0;pointerEvents=1;fontSize=16;align=left;" vertex="1" parent="zytnqdTkWcXbyPXpA95l-20">
          <mxGeometry x="880" width="290" height="130" as="geometry">
            <mxRectangle width="290" height="130" as="alternateBounds" />
          </mxGeometry>
        </mxCell>
        <mxCell id="zytnqdTkWcXbyPXpA95l-26" style="shape=tableRow;horizontal=0;startSize=0;swimlaneHead=0;swimlaneBody=0;strokeColor=inherit;top=0;left=0;bottom=0;right=0;collapsible=0;dropTarget=0;fillColor=none;points=[[0,0.5],[1,0.5]];portConstraint=eastwest;fontSize=16;" parent="zytnqdTkWcXbyPXpA95l-1" vertex="1">
          <mxGeometry y="427" width="1170" height="130" as="geometry" />
        </mxCell>
        <mxCell id="zytnqdTkWcXbyPXpA95l-27" value="Get Single Asset" style="shape=partialRectangle;html=1;whiteSpace=wrap;connectable=0;strokeColor=inherit;overflow=hidden;fillColor=none;top=0;left=0;bottom=0;right=0;pointerEvents=1;fontSize=16;align=left;" parent="zytnqdTkWcXbyPXpA95l-26" vertex="1">
          <mxGeometry width="192" height="130" as="geometry">
            <mxRectangle width="192" height="130" as="alternateBounds" />
          </mxGeometry>
        </mxCell>
        <mxCell id="zytnqdTkWcXbyPXpA95l-28" value="/assets/{assetID}" style="shape=partialRectangle;html=1;whiteSpace=wrap;connectable=0;strokeColor=inherit;overflow=hidden;fillColor=none;top=0;left=0;bottom=0;right=0;pointerEvents=1;fontSize=16;align=left;" parent="zytnqdTkWcXbyPXpA95l-26" vertex="1">
          <mxGeometry x="192" width="288" height="130" as="geometry">
            <mxRectangle width="288" height="130" as="alternateBounds" />
          </mxGeometry>
        </mxCell>
        <mxCell id="zytnqdTkWcXbyPXpA95l-29" value="GET" style="shape=partialRectangle;html=1;whiteSpace=wrap;connectable=0;strokeColor=inherit;overflow=hidden;fillColor=none;top=0;left=0;bottom=0;right=0;pointerEvents=1;fontSize=16;" parent="zytnqdTkWcXbyPXpA95l-26" vertex="1">
          <mxGeometry x="480" width="95" height="130" as="geometry">
            <mxRectangle width="95" height="130" as="alternateBounds" />
          </mxGeometry>
        </mxCell>
        <mxCell id="zytnqdTkWcXbyPXpA95l-30" value="&lt;ul style=&quot;&quot;&gt;&lt;li&gt;Admin&lt;/li&gt;&lt;li&gt;Asset Manager&lt;/li&gt;&lt;li&gt;Auditor&lt;/li&gt;&lt;li&gt;Department Manager*&lt;/li&gt;&lt;li&gt;Employee**&lt;/li&gt;&lt;/ul&gt;" style="shape=partialRectangle;html=1;whiteSpace=wrap;connectable=0;strokeColor=inherit;overflow=hidden;fillColor=none;top=0;left=0;bottom=0;right=0;pointerEvents=1;fontSize=16;align=left;" parent="zytnqdTkWcXbyPXpA95l-26" vertex="1">
          <mxGeometry x="575" width="215" height="130" as="geometry">
            <mxRectangle width="215" height="130" as="alternateBounds" />
          </mxGeometry>
        </mxCell>
        <mxCell id="zytnqdTkWcXbyPXpA95l-31" value="200(JSON), 404, 401" style="shape=partialRectangle;html=1;whiteSpace=wrap;connectable=0;strokeColor=inherit;overflow=hidden;fillColor=none;top=0;left=0;bottom=0;right=0;pointerEvents=1;fontSize=16;align=left;" parent="zytnqdTkWcXbyPXpA95l-26" vertex="1">
          <mxGeometry x="790" width="90" height="130" as="geometry">
            <mxRectangle width="90" height="130" as="alternateBounds" />
          </mxGeometry>
        </mxCell>
        <mxCell id="CHGXnOnzoU2PrAo-i4mN-5" style="shape=partialRectangle;html=1;whiteSpace=wrap;connectable=0;strokeColor=inherit;overflow=hidden;fillColor=none;top=0;left=0;bottom=0;right=0;pointerEvents=1;fontSize=16;align=left;" vertex="1" parent="zytnqdTkWcXbyPXpA95l-26">
          <mxGeometry x="880" width="290" height="130" as="geometry">
            <mxRectangle width="290" height="130" as="alternateBounds" />
          </mxGeometry>
        </mxCell>
        <mxCell id="CHGXnOnzoU2PrAo-i4mN-100" style="shape=tableRow;horizontal=0;startSize=0;swimlaneHead=0;swimlaneBody=0;strokeColor=inherit;top=0;left=0;bottom=0;right=0;collapsible=0;dropTarget=0;fillColor=none;points=[[0,0.5],[1,0.5]];portConstraint=eastwest;fontSize=16;" vertex="1" parent="zytnqdTkWcXbyPXpA95l-1">
          <mxGeometry y="557" width="1170" height="130" as="geometry" />
        </mxCell>
        <mxCell id="CHGXnOnzoU2PrAo-i4mN-101" value="Get Available Assets" style="shape=partialRectangle;html=1;whiteSpace=wrap;connectable=0;strokeColor=inherit;overflow=hidden;fillColor=none;top=0;left=0;bottom=0;right=0;pointerEvents=1;fontSize=16;align=left;" vertex="1" parent="CHGXnOnzoU2PrAo-i4mN-100">
          <mxGeometry width="192" height="130" as="geometry">
            <mxRectangle width="192" height="130" as="alternateBounds" />
          </mxGeometry>
        </mxCell>
        <mxCell id="CHGXnOnzoU2PrAo-i4mN-102" value="/assets/available" style="shape=partialRectangle;html=1;whiteSpace=wrap;connectable=0;strokeColor=inherit;overflow=hidden;fillColor=none;top=0;left=0;bottom=0;right=0;pointerEvents=1;fontSize=16;align=left;" vertex="1" parent="CHGXnOnzoU2PrAo-i4mN-100">
          <mxGeometry x="192" width="288" height="130" as="geometry">
            <mxRectangle width="288" height="130" as="alternateBounds" />
          </mxGeometry>
        </mxCell>
        <mxCell id="CHGXnOnzoU2PrAo-i4mN-103" value="GET" style="shape=partialRectangle;html=1;whiteSpace=wrap;connectable=0;strokeColor=inherit;overflow=hidden;fillColor=none;top=0;left=0;bottom=0;right=0;pointerEvents=1;fontSize=16;" vertex="1" parent="CHGXnOnzoU2PrAo-i4mN-100">
          <mxGeometry x="480" width="95" height="130" as="geometry">
            <mxRectangle width="95" height="130" as="alternateBounds" />
          </mxGeometry>
        </mxCell>
        <mxCell id="CHGXnOnzoU2PrAo-i4mN-104" value="&lt;ul&gt;&lt;li&gt;Admin&lt;/li&gt;&lt;li&gt;Asset Manager&lt;/li&gt;&lt;li&gt;Auditor&lt;/li&gt;&lt;li&gt;Department Manager&lt;/li&gt;&lt;/ul&gt;" style="shape=partialRectangle;html=1;whiteSpace=wrap;connectable=0;strokeColor=inherit;overflow=hidden;fillColor=none;top=0;left=0;bottom=0;right=0;pointerEvents=1;fontSize=16;align=left;" vertex="1" parent="CHGXnOnzoU2PrAo-i4mN-100">
          <mxGeometry x="575" width="215" height="130" as="geometry">
            <mxRectangle width="215" height="130" as="alternateBounds" />
          </mxGeometry>
        </mxCell>
        <mxCell id="CHGXnOnzoU2PrAo-i4mN-105" value="200(JSON), 401" style="shape=partialRectangle;html=1;whiteSpace=wrap;connectable=0;strokeColor=inherit;overflow=hidden;fillColor=none;top=0;left=0;bottom=0;right=0;pointerEvents=1;fontSize=16;align=left;" vertex="1" parent="CHGXnOnzoU2PrAo-i4mN-100">
          <mxGeometry x="790" width="90" height="130" as="geometry">
            <mxRectangle width="90" height="130" as="alternateBounds" />
          </mxGeometry>
        </mxCell>
        <mxCell id="CHGXnOnzoU2PrAo-i4mN-106" style="shape=partialRectangle;html=1;whiteSpace=wrap;connectable=0;strokeColor=inherit;overflow=hidden;fillColor=none;top=0;left=0;bottom=0;right=0;pointerEvents=1;fontSize=16;align=left;" vertex="1" parent="CHGXnOnzoU2PrAo-i4mN-100">
          <mxGeometry x="880" width="290" height="130" as="geometry">
            <mxRectangle width="290" height="130" as="alternateBounds" />
          </mxGeometry>
        </mxCell>
        <mxCell id="zytnqdTkWcXbyPXpA95l-32" style="shape=tableRow;horizontal=0;startSize=0;swimlaneHead=0;swimlaneBody=0;strokeColor=inherit;top=0;left=0;bottom=0;right=0;collapsible=0;dropTarget=0;fillColor=none;points=[[0,0.5],[1,0.5]];portConstraint=eastwest;fontSize=16;" parent="zytnqdTkWcXbyPXpA95l-1" vertex="1">
          <mxGeometry y="687" width="1170" height="193" as="geometry" />
        </mxCell>
        <mxCell id="zytnqdTkWcXbyPXpA95l-33" value="Add Asset" style="shape=partialRectangle;html=1;whiteSpace=wrap;connectable=0;strokeColor=inherit;overflow=hidden;fillColor=none;top=0;left=0;bottom=0;right=0;pointerEvents=1;fontSize=16;align=left;" parent="zytnqdTkWcXbyPXpA95l-32" vertex="1">
          <mxGeometry width="192" height="193" as="geometry">
            <mxRectangle width="192" height="193" as="alternateBounds" />
          </mxGeometry>
        </mxCell>
        <mxCell id="zytnqdTkWcXbyPXpA95l-34" value="/assets" style="shape=partialRectangle;html=1;whiteSpace=wrap;connectable=0;strokeColor=inherit;overflow=hidden;fillColor=none;top=0;left=0;bottom=0;right=0;pointerEvents=1;fontSize=16;align=left;" parent="zytnqdTkWcXbyPXpA95l-32" vertex="1">
          <mxGeometry x="192" width="288" height="193" as="geometry">
            <mxRectangle width="288" height="193" as="alternateBounds" />
          </mxGeometry>
        </mxCell>
        <mxCell id="zytnqdTkWcXbyPXpA95l-35" value="POST" style="shape=partialRectangle;html=1;whiteSpace=wrap;connectable=0;strokeColor=inherit;overflow=hidden;fillColor=none;top=0;left=0;bottom=0;right=0;pointerEvents=1;fontSize=16;" parent="zytnqdTkWcXbyPXpA95l-32" vertex="1">
          <mxGeometry x="480" width="95" height="193" as="geometry">
            <mxRectangle width="95" height="193" as="alternateBounds" />
          </mxGeometry>
        </mxCell>
        <mxCell id="zytnqdTkWcXbyPXpA95l-36" value="&lt;ul style=&quot;&quot;&gt;&lt;li&gt;Admin&lt;/li&gt;&lt;li&gt;Asset Manager&lt;/li&gt;&lt;/ul&gt;" style="shape=partialRectangle;html=1;whiteSpace=wrap;connectable=0;strokeColor=inherit;overflow=hidden;fillColor=none;top=0;left=0;bottom=0;right=0;pointerEvents=1;fontSize=16;align=left;" parent="zytnqdTkWcXbyPXpA95l-32" vertex="1">
          <mxGeometry x="575" width="215" height="193" as="geometry">
            <mxRectangle width="215" height="193" as="alternateBounds" />
          </mxGeometry>
        </mxCell>
        <mxCell id="zytnqdTkWcXbyPXpA95l-37" value="201, 400, 401" style="shape=partialRectangle;html=1;whiteSpace=wrap;connectable=0;strokeColor=inherit;overflow=hidden;fillColor=none;top=0;left=0;bottom=0;right=0;pointerEvents=1;fontSize=16;align=left;" parent="zytnqdTkWcXbyPXpA95l-32" vertex="1">
          <mxGeometry x="790" width="90" height="193" as="geometry">
            <mxRectangle width="90" height="193" as="alternateBounds" />
          </mxGeometry>
        </mxCell>
        <mxCell id="CHGXnOnzoU2PrAo-i4mN-6" value="{&lt;div&gt;&lt;span style=&quot;white-space: pre;&quot;&gt;&#x9;&lt;/span&gt;AssetTypeID: int&lt;/div&gt;&lt;div&gt;&lt;span style=&quot;white-space: pre;&quot;&gt;&#x9;&lt;/span&gt;ManufacturerID: int?***&lt;/div&gt;&lt;div&gt;&lt;span style=&quot;white-space: pre;&quot;&gt;&#x9;&lt;/span&gt;ModelID: int?&lt;br&gt;&lt;/div&gt;&lt;div&gt;&lt;span style=&quot;white-space: pre;&quot;&gt;&#x9;&lt;/span&gt;LocationID : int&lt;/div&gt;&lt;div&gt;&lt;span style=&quot;white-space: pre;&quot;&gt;&#x9;&lt;/span&gt;SerialNumber: string (maxL: 50)&lt;/div&gt;&lt;div&gt;&lt;span style=&quot;white-space: pre;&quot;&gt;&#x9;&lt;/span&gt;PirchaseDate: date&lt;/div&gt;&lt;div&gt;&lt;span style=&quot;white-space: pre;&quot;&gt;&#x9;&lt;/span&gt;PurchasePrice: decimal(10,2)&lt;br&gt;&lt;div&gt;}&lt;/div&gt;&lt;/div&gt;" style="shape=partialRectangle;html=1;whiteSpace=wrap;connectable=0;strokeColor=inherit;overflow=hidden;fillColor=none;top=0;left=0;bottom=0;right=0;pointerEvents=1;fontSize=16;align=left;" vertex="1" parent="zytnqdTkWcXbyPXpA95l-32">
          <mxGeometry x="880" width="290" height="193" as="geometry">
            <mxRectangle width="290" height="193" as="alternateBounds" />
          </mxGeometry>
        </mxCell>
        <mxCell id="zytnqdTkWcXbyPXpA95l-38" style="shape=tableRow;horizontal=0;startSize=0;swimlaneHead=0;swimlaneBody=0;strokeColor=inherit;top=0;left=0;bottom=0;right=0;collapsible=0;dropTarget=0;fillColor=none;points=[[0,0.5],[1,0.5]];portConstraint=eastwest;fontSize=16;" parent="zytnqdTkWcXbyPXpA95l-1" vertex="1">
          <mxGeometry y="880" width="1170" height="210" as="geometry" />
        </mxCell>
        <mxCell id="zytnqdTkWcXbyPXpA95l-39" value="Edit Asset" style="shape=partialRectangle;html=1;whiteSpace=wrap;connectable=0;strokeColor=inherit;overflow=hidden;fillColor=none;top=0;left=0;bottom=0;right=0;pointerEvents=1;fontSize=16;align=left;" parent="zytnqdTkWcXbyPXpA95l-38" vertex="1">
          <mxGeometry width="192" height="210" as="geometry">
            <mxRectangle width="192" height="210" as="alternateBounds" />
          </mxGeometry>
        </mxCell>
        <mxCell id="zytnqdTkWcXbyPXpA95l-40" value="/assets/{assetID}" style="shape=partialRectangle;html=1;whiteSpace=wrap;connectable=0;strokeColor=inherit;overflow=hidden;fillColor=none;top=0;left=0;bottom=0;right=0;pointerEvents=1;fontSize=16;align=left;" parent="zytnqdTkWcXbyPXpA95l-38" vertex="1">
          <mxGeometry x="192" width="288" height="210" as="geometry">
            <mxRectangle width="288" height="210" as="alternateBounds" />
          </mxGeometry>
        </mxCell>
        <mxCell id="zytnqdTkWcXbyPXpA95l-41" value="PUT" style="shape=partialRectangle;html=1;whiteSpace=wrap;connectable=0;strokeColor=inherit;overflow=hidden;fillColor=none;top=0;left=0;bottom=0;right=0;pointerEvents=1;fontSize=16;" parent="zytnqdTkWcXbyPXpA95l-38" vertex="1">
          <mxGeometry x="480" width="95" height="210" as="geometry">
            <mxRectangle width="95" height="210" as="alternateBounds" />
          </mxGeometry>
        </mxCell>
        <mxCell id="zytnqdTkWcXbyPXpA95l-42" value="&lt;ul style=&quot;&quot;&gt;&lt;li&gt;Admin&lt;/li&gt;&lt;li&gt;Asset Manager&lt;/li&gt;&lt;/ul&gt;" style="shape=partialRectangle;html=1;whiteSpace=wrap;connectable=0;strokeColor=inherit;overflow=hidden;fillColor=none;top=0;left=0;bottom=0;right=0;pointerEvents=1;fontSize=16;align=left;" parent="zytnqdTkWcXbyPXpA95l-38" vertex="1">
          <mxGeometry x="575" width="215" height="210" as="geometry">
            <mxRectangle width="215" height="210" as="alternateBounds" />
          </mxGeometry>
        </mxCell>
        <mxCell id="zytnqdTkWcXbyPXpA95l-43" value="204, 400, 404, 401" style="shape=partialRectangle;html=1;whiteSpace=wrap;connectable=0;strokeColor=inherit;overflow=hidden;fillColor=none;top=0;left=0;bottom=0;right=0;pointerEvents=1;fontSize=16;align=left;" parent="zytnqdTkWcXbyPXpA95l-38" vertex="1">
          <mxGeometry x="790" width="90" height="210" as="geometry">
            <mxRectangle width="90" height="210" as="alternateBounds" />
          </mxGeometry>
        </mxCell>
        <mxCell id="CHGXnOnzoU2PrAo-i4mN-7" value="{&lt;div&gt;&lt;span style=&quot;white-space: pre;&quot;&gt;&#x9;&lt;/span&gt;AssetTypeID: int&lt;/div&gt;&lt;div&gt;&lt;span style=&quot;white-space: pre;&quot;&gt;&#x9;&lt;/span&gt;ManufacturerID: int?&lt;/div&gt;&lt;div&gt;&lt;span style=&quot;white-space: pre;&quot;&gt;&#x9;&lt;/span&gt;ModelID: int?&lt;br&gt;&lt;/div&gt;&lt;div&gt;&lt;span style=&quot;white-space: pre;&quot;&gt;&#x9;&lt;/span&gt;AssetStatusID: int&lt;br&gt;&lt;/div&gt;&lt;div&gt;&lt;span style=&quot;white-space: pre;&quot;&gt;&#x9;&lt;/span&gt;LocationID : int&lt;/div&gt;&lt;div&gt;&lt;span style=&quot;white-space: pre;&quot;&gt;&#x9;&lt;/span&gt;SerialNumber: string (maxL: 50)&lt;/div&gt;&lt;div&gt;&lt;span style=&quot;white-space: pre;&quot;&gt;&#x9;&lt;/span&gt;PirchaseDate: date&lt;/div&gt;&lt;div&gt;&lt;span style=&quot;white-space: pre;&quot;&gt;&#x9;&lt;/span&gt;PurchasePrice: decimal(10,2)&lt;br&gt;&lt;div&gt;}&lt;/div&gt;&lt;/div&gt;" style="shape=partialRectangle;html=1;whiteSpace=wrap;connectable=0;strokeColor=inherit;overflow=hidden;fillColor=none;top=0;left=0;bottom=0;right=0;pointerEvents=1;fontSize=16;align=left;" vertex="1" parent="zytnqdTkWcXbyPXpA95l-38">
          <mxGeometry x="880" width="290" height="210" as="geometry">
            <mxRectangle width="290" height="210" as="alternateBounds" />
          </mxGeometry>
        </mxCell>
        <mxCell id="zytnqdTkWcXbyPXpA95l-44" style="shape=tableRow;horizontal=0;startSize=0;swimlaneHead=0;swimlaneBody=0;strokeColor=inherit;top=0;left=0;bottom=0;right=0;collapsible=0;dropTarget=0;fillColor=none;points=[[0,0.5],[1,0.5]];portConstraint=eastwest;fontSize=16;" parent="zytnqdTkWcXbyPXpA95l-1" vertex="1">
          <mxGeometry y="1090" width="1170" height="90" as="geometry" />
        </mxCell>
        <mxCell id="zytnqdTkWcXbyPXpA95l-45" value="Delete Asset" style="shape=partialRectangle;html=1;whiteSpace=wrap;connectable=0;strokeColor=inherit;overflow=hidden;fillColor=none;top=0;left=0;bottom=0;right=0;pointerEvents=1;fontSize=16;align=left;" parent="zytnqdTkWcXbyPXpA95l-44" vertex="1">
          <mxGeometry width="192" height="90" as="geometry">
            <mxRectangle width="192" height="90" as="alternateBounds" />
          </mxGeometry>
        </mxCell>
        <mxCell id="zytnqdTkWcXbyPXpA95l-46" value="/assets/{assetID}" style="shape=partialRectangle;html=1;whiteSpace=wrap;connectable=0;strokeColor=inherit;overflow=hidden;fillColor=none;top=0;left=0;bottom=0;right=0;pointerEvents=1;fontSize=16;align=left;" parent="zytnqdTkWcXbyPXpA95l-44" vertex="1">
          <mxGeometry x="192" width="288" height="90" as="geometry">
            <mxRectangle width="288" height="90" as="alternateBounds" />
          </mxGeometry>
        </mxCell>
        <mxCell id="zytnqdTkWcXbyPXpA95l-47" value="DELETE" style="shape=partialRectangle;html=1;whiteSpace=wrap;connectable=0;strokeColor=inherit;overflow=hidden;fillColor=none;top=0;left=0;bottom=0;right=0;pointerEvents=1;fontSize=16;" parent="zytnqdTkWcXbyPXpA95l-44" vertex="1">
          <mxGeometry x="480" width="95" height="90" as="geometry">
            <mxRectangle width="95" height="90" as="alternateBounds" />
          </mxGeometry>
        </mxCell>
        <mxCell id="zytnqdTkWcXbyPXpA95l-48" value="&lt;ul style=&quot;&quot;&gt;&lt;li&gt;Admin&lt;/li&gt;&lt;li&gt;Asset Manager&lt;/li&gt;&lt;/ul&gt;" style="shape=partialRectangle;html=1;whiteSpace=wrap;connectable=0;strokeColor=inherit;overflow=hidden;fillColor=none;top=0;left=0;bottom=0;right=0;pointerEvents=1;fontSize=16;align=left;" parent="zytnqdTkWcXbyPXpA95l-44" vertex="1">
          <mxGeometry x="575" width="215" height="90" as="geometry">
            <mxRectangle width="215" height="90" as="alternateBounds" />
          </mxGeometry>
        </mxCell>
        <mxCell id="zytnqdTkWcXbyPXpA95l-49" value="204, 404, 401" style="shape=partialRectangle;html=1;whiteSpace=wrap;connectable=0;strokeColor=inherit;overflow=hidden;fillColor=none;top=0;left=0;bottom=0;right=0;pointerEvents=1;fontSize=16;align=left;" parent="zytnqdTkWcXbyPXpA95l-44" vertex="1">
          <mxGeometry x="790" width="90" height="90" as="geometry">
            <mxRectangle width="90" height="90" as="alternateBounds" />
          </mxGeometry>
        </mxCell>
        <mxCell id="CHGXnOnzoU2PrAo-i4mN-8" style="shape=partialRectangle;html=1;whiteSpace=wrap;connectable=0;strokeColor=inherit;overflow=hidden;fillColor=none;top=0;left=0;bottom=0;right=0;pointerEvents=1;fontSize=16;align=left;" vertex="1" parent="zytnqdTkWcXbyPXpA95l-44">
          <mxGeometry x="880" width="290" height="90" as="geometry">
            <mxRectangle width="290" height="90" as="alternateBounds" />
          </mxGeometry>
        </mxCell>
        <mxCell id="zytnqdTkWcXbyPXpA95l-56" value="* Only if authorized Department Manager is assigned the same DepartmentID as the requested Asset, ** Only if Asset is Assigned to EmployeeID of the requesting Employee, *** ? = optional" style="text;html=1;align=left;verticalAlign=middle;whiteSpace=wrap;rounded=0;" parent="1" vertex="1">
          <mxGeometry y="1180" width="1070" height="30" as="geometry" />
        </mxCell>
        <mxCell id="zytnqdTkWcXbyPXpA95l-57" value="" style="shape=table;startSize=0;container=1;collapsible=0;childLayout=tableLayout;fontSize=16;fillColor=none;" parent="1" vertex="1">
          <mxGeometry y="1210" width="1170" height="780" as="geometry" />
        </mxCell>
        <mxCell id="zytnqdTkWcXbyPXpA95l-58" value="" style="shape=tableRow;horizontal=0;startSize=0;swimlaneHead=0;swimlaneBody=0;strokeColor=inherit;top=0;left=0;bottom=0;right=0;collapsible=0;dropTarget=0;fillColor=none;points=[[0,0.5],[1,0.5]];portConstraint=eastwest;fontSize=16;" parent="zytnqdTkWcXbyPXpA95l-57" vertex="1">
          <mxGeometry width="1170" height="88" as="geometry" />
        </mxCell>
        <mxCell id="zytnqdTkWcXbyPXpA95l-59" value="Get Licenses" style="shape=partialRectangle;html=1;whiteSpace=wrap;connectable=0;strokeColor=inherit;overflow=hidden;fillColor=none;top=0;left=0;bottom=0;right=0;pointerEvents=1;fontSize=16;align=left;" parent="zytnqdTkWcXbyPXpA95l-58" vertex="1">
          <mxGeometry width="192" height="88" as="geometry">
            <mxRectangle width="192" height="88" as="alternateBounds" />
          </mxGeometry>
        </mxCell>
        <mxCell id="zytnqdTkWcXbyPXpA95l-60" value="/licenses" style="shape=partialRectangle;html=1;whiteSpace=wrap;connectable=0;strokeColor=inherit;overflow=hidden;fillColor=none;top=0;left=0;bottom=0;right=0;pointerEvents=1;fontSize=16;align=left;" parent="zytnqdTkWcXbyPXpA95l-58" vertex="1">
          <mxGeometry x="192" width="288" height="88" as="geometry">
            <mxRectangle width="288" height="88" as="alternateBounds" />
          </mxGeometry>
        </mxCell>
        <mxCell id="zytnqdTkWcXbyPXpA95l-61" value="GET" style="shape=partialRectangle;html=1;whiteSpace=wrap;connectable=0;strokeColor=inherit;overflow=hidden;fillColor=none;top=0;left=0;bottom=0;right=0;pointerEvents=1;fontSize=16;" parent="zytnqdTkWcXbyPXpA95l-58" vertex="1">
          <mxGeometry x="480" width="100" height="88" as="geometry">
            <mxRectangle width="100" height="88" as="alternateBounds" />
          </mxGeometry>
        </mxCell>
        <mxCell id="zytnqdTkWcXbyPXpA95l-70" value="&lt;ul style=&quot;&quot;&gt;&lt;li&gt;Admin&lt;/li&gt;&lt;li&gt;Asset Manager&lt;/li&gt;&lt;li&gt;Auditor&lt;/li&gt;&lt;/ul&gt;" style="shape=partialRectangle;html=1;whiteSpace=wrap;connectable=0;strokeColor=inherit;overflow=hidden;fillColor=none;top=0;left=0;bottom=0;right=0;pointerEvents=1;fontSize=16;align=left;" parent="zytnqdTkWcXbyPXpA95l-58" vertex="1">
          <mxGeometry x="580" width="210" height="88" as="geometry">
            <mxRectangle width="210" height="88" as="alternateBounds" />
          </mxGeometry>
        </mxCell>
        <mxCell id="zytnqdTkWcXbyPXpA95l-73" value="200(JSON), 401" style="shape=partialRectangle;html=1;whiteSpace=wrap;connectable=0;strokeColor=inherit;overflow=hidden;fillColor=none;top=0;left=0;bottom=0;right=0;pointerEvents=1;fontSize=16;align=left;" parent="zytnqdTkWcXbyPXpA95l-58" vertex="1">
          <mxGeometry x="790" width="90" height="88" as="geometry">
            <mxRectangle width="90" height="88" as="alternateBounds" />
          </mxGeometry>
        </mxCell>
        <mxCell id="CHGXnOnzoU2PrAo-i4mN-9" style="shape=partialRectangle;html=1;whiteSpace=wrap;connectable=0;strokeColor=inherit;overflow=hidden;fillColor=none;top=0;left=0;bottom=0;right=0;pointerEvents=1;fontSize=16;align=left;" vertex="1" parent="zytnqdTkWcXbyPXpA95l-58">
          <mxGeometry x="880" width="290" height="88" as="geometry">
            <mxRectangle width="290" height="88" as="alternateBounds" />
          </mxGeometry>
        </mxCell>
        <mxCell id="zytnqdTkWcXbyPXpA95l-62" value="" style="shape=tableRow;horizontal=0;startSize=0;swimlaneHead=0;swimlaneBody=0;strokeColor=inherit;top=0;left=0;bottom=0;right=0;collapsible=0;dropTarget=0;fillColor=none;points=[[0,0.5],[1,0.5]];portConstraint=eastwest;fontSize=16;" parent="zytnqdTkWcXbyPXpA95l-57" vertex="1">
          <mxGeometry y="88" width="1170" height="136" as="geometry" />
        </mxCell>
        <mxCell id="zytnqdTkWcXbyPXpA95l-63" value="Get Employee Licenses" style="shape=partialRectangle;html=1;whiteSpace=wrap;connectable=0;strokeColor=inherit;overflow=hidden;fillColor=none;top=0;left=0;bottom=0;right=0;pointerEvents=1;fontSize=16;align=left;" parent="zytnqdTkWcXbyPXpA95l-62" vertex="1">
          <mxGeometry width="192" height="136" as="geometry">
            <mxRectangle width="192" height="136" as="alternateBounds" />
          </mxGeometry>
        </mxCell>
        <mxCell id="zytnqdTkWcXbyPXpA95l-64" value="/licenses/employee/{employeeID}" style="shape=partialRectangle;html=1;whiteSpace=wrap;connectable=0;strokeColor=inherit;overflow=hidden;fillColor=none;top=0;left=0;bottom=0;right=0;pointerEvents=1;fontSize=16;align=left;" parent="zytnqdTkWcXbyPXpA95l-62" vertex="1">
          <mxGeometry x="192" width="288" height="136" as="geometry">
            <mxRectangle width="288" height="136" as="alternateBounds" />
          </mxGeometry>
        </mxCell>
        <mxCell id="zytnqdTkWcXbyPXpA95l-65" value="GET" style="shape=partialRectangle;html=1;whiteSpace=wrap;connectable=0;strokeColor=inherit;overflow=hidden;fillColor=none;top=0;left=0;bottom=0;right=0;pointerEvents=1;fontSize=16;" parent="zytnqdTkWcXbyPXpA95l-62" vertex="1">
          <mxGeometry x="480" width="100" height="136" as="geometry">
            <mxRectangle width="100" height="136" as="alternateBounds" />
          </mxGeometry>
        </mxCell>
        <mxCell id="zytnqdTkWcXbyPXpA95l-71" value="&lt;ul style=&quot;&quot;&gt;&lt;li&gt;Admin&lt;/li&gt;&lt;li&gt;Asset Manager&lt;/li&gt;&lt;li&gt;Auditor&lt;/li&gt;&lt;li&gt;Department Manager&lt;/li&gt;&lt;li&gt;Employee&lt;/li&gt;&lt;/ul&gt;" style="shape=partialRectangle;html=1;whiteSpace=wrap;connectable=0;strokeColor=inherit;overflow=hidden;fillColor=none;top=0;left=0;bottom=0;right=0;pointerEvents=1;fontSize=16;align=left;" parent="zytnqdTkWcXbyPXpA95l-62" vertex="1">
          <mxGeometry x="580" width="210" height="136" as="geometry">
            <mxRectangle width="210" height="136" as="alternateBounds" />
          </mxGeometry>
        </mxCell>
        <mxCell id="zytnqdTkWcXbyPXpA95l-74" value="200(JSON), 404, 401" style="shape=partialRectangle;html=1;whiteSpace=wrap;connectable=0;strokeColor=inherit;overflow=hidden;fillColor=none;top=0;left=0;bottom=0;right=0;pointerEvents=1;fontSize=16;align=left;" parent="zytnqdTkWcXbyPXpA95l-62" vertex="1">
          <mxGeometry x="790" width="90" height="136" as="geometry">
            <mxRectangle width="90" height="136" as="alternateBounds" />
          </mxGeometry>
        </mxCell>
        <mxCell id="CHGXnOnzoU2PrAo-i4mN-10" style="shape=partialRectangle;html=1;whiteSpace=wrap;connectable=0;strokeColor=inherit;overflow=hidden;fillColor=none;top=0;left=0;bottom=0;right=0;pointerEvents=1;fontSize=16;align=left;" vertex="1" parent="zytnqdTkWcXbyPXpA95l-62">
          <mxGeometry x="880" width="290" height="136" as="geometry">
            <mxRectangle width="290" height="136" as="alternateBounds" />
          </mxGeometry>
        </mxCell>
        <mxCell id="zytnqdTkWcXbyPXpA95l-66" value="" style="shape=tableRow;horizontal=0;startSize=0;swimlaneHead=0;swimlaneBody=0;strokeColor=inherit;top=0;left=0;bottom=0;right=0;collapsible=0;dropTarget=0;fillColor=none;points=[[0,0.5],[1,0.5]];portConstraint=eastwest;fontSize=16;" parent="zytnqdTkWcXbyPXpA95l-57" vertex="1">
          <mxGeometry y="224" width="1170" height="130" as="geometry" />
        </mxCell>
        <mxCell id="zytnqdTkWcXbyPXpA95l-67" value="Get Single License" style="shape=partialRectangle;html=1;whiteSpace=wrap;connectable=0;strokeColor=inherit;overflow=hidden;fillColor=none;top=0;left=0;bottom=0;right=0;pointerEvents=1;fontSize=16;align=left;" parent="zytnqdTkWcXbyPXpA95l-66" vertex="1">
          <mxGeometry width="192" height="130" as="geometry">
            <mxRectangle width="192" height="130" as="alternateBounds" />
          </mxGeometry>
        </mxCell>
        <mxCell id="zytnqdTkWcXbyPXpA95l-68" value="/licenses/{softwareAssetID}" style="shape=partialRectangle;html=1;whiteSpace=wrap;connectable=0;strokeColor=inherit;overflow=hidden;fillColor=none;top=0;left=0;bottom=0;right=0;pointerEvents=1;fontSize=16;align=left;" parent="zytnqdTkWcXbyPXpA95l-66" vertex="1">
          <mxGeometry x="192" width="288" height="130" as="geometry">
            <mxRectangle width="288" height="130" as="alternateBounds" />
          </mxGeometry>
        </mxCell>
        <mxCell id="zytnqdTkWcXbyPXpA95l-69" value="GET" style="shape=partialRectangle;html=1;whiteSpace=wrap;connectable=0;strokeColor=inherit;overflow=hidden;fillColor=none;top=0;left=0;bottom=0;right=0;pointerEvents=1;fontSize=16;" parent="zytnqdTkWcXbyPXpA95l-66" vertex="1">
          <mxGeometry x="480" width="100" height="130" as="geometry">
            <mxRectangle width="100" height="130" as="alternateBounds" />
          </mxGeometry>
        </mxCell>
        <mxCell id="zytnqdTkWcXbyPXpA95l-72" value="&lt;ul style=&quot;&quot;&gt;&lt;li&gt;Admin&lt;/li&gt;&lt;li&gt;Asset Manager&lt;/li&gt;&lt;li&gt;Auditor&lt;/li&gt;&lt;li&gt;Department Manager*&lt;/li&gt;&lt;li&gt;Employee**&lt;/li&gt;&lt;/ul&gt;" style="shape=partialRectangle;html=1;whiteSpace=wrap;connectable=0;strokeColor=inherit;overflow=hidden;fillColor=none;top=0;left=0;bottom=0;right=0;pointerEvents=1;fontSize=16;align=left;" parent="zytnqdTkWcXbyPXpA95l-66" vertex="1">
          <mxGeometry x="580" width="210" height="130" as="geometry">
            <mxRectangle width="210" height="130" as="alternateBounds" />
          </mxGeometry>
        </mxCell>
        <mxCell id="zytnqdTkWcXbyPXpA95l-75" value="200(JSON), 404, 401" style="shape=partialRectangle;html=1;whiteSpace=wrap;connectable=0;strokeColor=inherit;overflow=hidden;fillColor=none;top=0;left=0;bottom=0;right=0;pointerEvents=1;fontSize=16;align=left;" parent="zytnqdTkWcXbyPXpA95l-66" vertex="1">
          <mxGeometry x="790" width="90" height="130" as="geometry">
            <mxRectangle width="90" height="130" as="alternateBounds" />
          </mxGeometry>
        </mxCell>
        <mxCell id="CHGXnOnzoU2PrAo-i4mN-11" style="shape=partialRectangle;html=1;whiteSpace=wrap;connectable=0;strokeColor=inherit;overflow=hidden;fillColor=none;top=0;left=0;bottom=0;right=0;pointerEvents=1;fontSize=16;align=left;" vertex="1" parent="zytnqdTkWcXbyPXpA95l-66">
          <mxGeometry x="880" width="290" height="130" as="geometry">
            <mxRectangle width="290" height="130" as="alternateBounds" />
          </mxGeometry>
        </mxCell>
        <mxCell id="zytnqdTkWcXbyPXpA95l-76" style="shape=tableRow;horizontal=0;startSize=0;swimlaneHead=0;swimlaneBody=0;strokeColor=inherit;top=0;left=0;bottom=0;right=0;collapsible=0;dropTarget=0;fillColor=none;points=[[0,0.5],[1,0.5]];portConstraint=eastwest;fontSize=16;" parent="zytnqdTkWcXbyPXpA95l-57" vertex="1">
          <mxGeometry y="354" width="1170" height="166" as="geometry" />
        </mxCell>
        <mxCell id="zytnqdTkWcXbyPXpA95l-77" value="Add License" style="shape=partialRectangle;html=1;whiteSpace=wrap;connectable=0;strokeColor=inherit;overflow=hidden;fillColor=none;top=0;left=0;bottom=0;right=0;pointerEvents=1;fontSize=16;align=left;" parent="zytnqdTkWcXbyPXpA95l-76" vertex="1">
          <mxGeometry width="192" height="166" as="geometry">
            <mxRectangle width="192" height="166" as="alternateBounds" />
          </mxGeometry>
        </mxCell>
        <mxCell id="zytnqdTkWcXbyPXpA95l-78" value="/licenses" style="shape=partialRectangle;html=1;whiteSpace=wrap;connectable=0;strokeColor=inherit;overflow=hidden;fillColor=none;top=0;left=0;bottom=0;right=0;pointerEvents=1;fontSize=16;align=left;" parent="zytnqdTkWcXbyPXpA95l-76" vertex="1">
          <mxGeometry x="192" width="288" height="166" as="geometry">
            <mxRectangle width="288" height="166" as="alternateBounds" />
          </mxGeometry>
        </mxCell>
        <mxCell id="zytnqdTkWcXbyPXpA95l-79" value="POST" style="shape=partialRectangle;html=1;whiteSpace=wrap;connectable=0;strokeColor=inherit;overflow=hidden;fillColor=none;top=0;left=0;bottom=0;right=0;pointerEvents=1;fontSize=16;" parent="zytnqdTkWcXbyPXpA95l-76" vertex="1">
          <mxGeometry x="480" width="100" height="166" as="geometry">
            <mxRectangle width="100" height="166" as="alternateBounds" />
          </mxGeometry>
        </mxCell>
        <mxCell id="zytnqdTkWcXbyPXpA95l-80" value="&lt;ul style=&quot;&quot;&gt;&lt;li&gt;Admin&lt;/li&gt;&lt;li&gt;Asset Manager&lt;/li&gt;&lt;/ul&gt;" style="shape=partialRectangle;html=1;whiteSpace=wrap;connectable=0;strokeColor=inherit;overflow=hidden;fillColor=none;top=0;left=0;bottom=0;right=0;pointerEvents=1;fontSize=16;align=left;" parent="zytnqdTkWcXbyPXpA95l-76" vertex="1">
          <mxGeometry x="580" width="210" height="166" as="geometry">
            <mxRectangle width="210" height="166" as="alternateBounds" />
          </mxGeometry>
        </mxCell>
        <mxCell id="zytnqdTkWcXbyPXpA95l-81" value="201, 400, 401" style="shape=partialRectangle;html=1;whiteSpace=wrap;connectable=0;strokeColor=inherit;overflow=hidden;fillColor=none;top=0;left=0;bottom=0;right=0;pointerEvents=1;fontSize=16;align=left;" parent="zytnqdTkWcXbyPXpA95l-76" vertex="1">
          <mxGeometry x="790" width="90" height="166" as="geometry">
            <mxRectangle width="90" height="166" as="alternateBounds" />
          </mxGeometry>
        </mxCell>
        <mxCell id="CHGXnOnzoU2PrAo-i4mN-12" value="{&lt;div&gt;&lt;span style=&quot;white-space: pre;&quot;&gt;&#x9;&lt;/span&gt;ManufacturerID: int?&lt;/div&gt;&lt;div&gt;&lt;span style=&quot;white-space: pre;&quot;&gt;&#x9;&lt;/span&gt;LicenseTypeID: int&lt;/div&gt;&lt;div&gt;&lt;span style=&quot;white-space: pre;&quot;&gt;&#x9;&lt;/span&gt;LicenseKey: string (maxL: 50)&lt;/div&gt;&lt;div&gt;&lt;span style=&quot;white-space: pre;&quot;&gt;&#x9;&lt;/span&gt;NumberOfLicenses: int&lt;/div&gt;&lt;div&gt;&lt;span style=&quot;white-space: pre;&quot;&gt;&#x9;&lt;/span&gt;Version: string (maxL: 10)&lt;br&gt;&lt;/div&gt;&lt;div&gt;&lt;span style=&quot;white-space: pre;&quot;&gt;&#x9;&lt;/span&gt;ExpirationDate: date&lt;br&gt;&lt;div&gt;}&lt;/div&gt;&lt;/div&gt;" style="shape=partialRectangle;html=1;whiteSpace=wrap;connectable=0;strokeColor=inherit;overflow=hidden;fillColor=none;top=0;left=0;bottom=0;right=0;pointerEvents=1;fontSize=16;align=left;" vertex="1" parent="zytnqdTkWcXbyPXpA95l-76">
          <mxGeometry x="880" width="290" height="166" as="geometry">
            <mxRectangle width="290" height="166" as="alternateBounds" />
          </mxGeometry>
        </mxCell>
        <mxCell id="zytnqdTkWcXbyPXpA95l-82" style="shape=tableRow;horizontal=0;startSize=0;swimlaneHead=0;swimlaneBody=0;strokeColor=inherit;top=0;left=0;bottom=0;right=0;collapsible=0;dropTarget=0;fillColor=none;points=[[0,0.5],[1,0.5]];portConstraint=eastwest;fontSize=16;" parent="zytnqdTkWcXbyPXpA95l-57" vertex="1">
          <mxGeometry y="520" width="1170" height="190" as="geometry" />
        </mxCell>
        <mxCell id="zytnqdTkWcXbyPXpA95l-83" value="Edit License" style="shape=partialRectangle;html=1;whiteSpace=wrap;connectable=0;strokeColor=inherit;overflow=hidden;fillColor=none;top=0;left=0;bottom=0;right=0;pointerEvents=1;fontSize=16;align=left;" parent="zytnqdTkWcXbyPXpA95l-82" vertex="1">
          <mxGeometry width="192" height="190" as="geometry">
            <mxRectangle width="192" height="190" as="alternateBounds" />
          </mxGeometry>
        </mxCell>
        <mxCell id="zytnqdTkWcXbyPXpA95l-84" value="/licenses/{softwareAssetID}" style="shape=partialRectangle;html=1;whiteSpace=wrap;connectable=0;strokeColor=inherit;overflow=hidden;fillColor=none;top=0;left=0;bottom=0;right=0;pointerEvents=1;fontSize=16;align=left;" parent="zytnqdTkWcXbyPXpA95l-82" vertex="1">
          <mxGeometry x="192" width="288" height="190" as="geometry">
            <mxRectangle width="288" height="190" as="alternateBounds" />
          </mxGeometry>
        </mxCell>
        <mxCell id="zytnqdTkWcXbyPXpA95l-85" value="PUT" style="shape=partialRectangle;html=1;whiteSpace=wrap;connectable=0;strokeColor=inherit;overflow=hidden;fillColor=none;top=0;left=0;bottom=0;right=0;pointerEvents=1;fontSize=16;" parent="zytnqdTkWcXbyPXpA95l-82" vertex="1">
          <mxGeometry x="480" width="100" height="190" as="geometry">
            <mxRectangle width="100" height="190" as="alternateBounds" />
          </mxGeometry>
        </mxCell>
        <mxCell id="zytnqdTkWcXbyPXpA95l-86" value="&lt;ul style=&quot;&quot;&gt;&lt;li&gt;Admin&lt;/li&gt;&lt;li&gt;Asset Manager&lt;/li&gt;&lt;/ul&gt;" style="shape=partialRectangle;html=1;whiteSpace=wrap;connectable=0;strokeColor=inherit;overflow=hidden;fillColor=none;top=0;left=0;bottom=0;right=0;pointerEvents=1;fontSize=16;align=left;" parent="zytnqdTkWcXbyPXpA95l-82" vertex="1">
          <mxGeometry x="580" width="210" height="190" as="geometry">
            <mxRectangle width="210" height="190" as="alternateBounds" />
          </mxGeometry>
        </mxCell>
        <mxCell id="zytnqdTkWcXbyPXpA95l-87" value="204, 400, 404, 401" style="shape=partialRectangle;html=1;whiteSpace=wrap;connectable=0;strokeColor=inherit;overflow=hidden;fillColor=none;top=0;left=0;bottom=0;right=0;pointerEvents=1;fontSize=16;align=left;" parent="zytnqdTkWcXbyPXpA95l-82" vertex="1">
          <mxGeometry x="790" width="90" height="190" as="geometry">
            <mxRectangle width="90" height="190" as="alternateBounds" />
          </mxGeometry>
        </mxCell>
        <mxCell id="CHGXnOnzoU2PrAo-i4mN-13" value="{&lt;div&gt;&lt;span style=&quot;white-space: pre;&quot;&gt;&#x9;&lt;/span&gt;ManufacturerID: int?&lt;/div&gt;&lt;div&gt;&lt;span style=&quot;white-space: pre;&quot;&gt;&#x9;&lt;/span&gt;LicenseTypeID: int&lt;/div&gt;&lt;div&gt;&lt;span style=&quot;white-space: pre;&quot;&gt;&#x9;&lt;/span&gt;AssetStatusID: int&lt;br&gt;&lt;/div&gt;&lt;div&gt;&lt;span style=&quot;white-space: pre;&quot;&gt;&#x9;&lt;/span&gt;LicenseKey: string (maxL: 50)&lt;/div&gt;&lt;div&gt;&lt;span style=&quot;white-space: pre;&quot;&gt;&#x9;&lt;/span&gt;NumberOfLicenses: int&lt;/div&gt;&lt;div&gt;&lt;span style=&quot;white-space: pre;&quot;&gt;&#x9;&lt;/span&gt;Version: string (maxL: 10)&lt;br&gt;&lt;/div&gt;&lt;div&gt;&lt;span style=&quot;white-space: pre;&quot;&gt;&#x9;&lt;/span&gt;ExpirationDate: date&lt;br&gt;&lt;div&gt;}&lt;/div&gt;&lt;/div&gt;" style="shape=partialRectangle;html=1;whiteSpace=wrap;connectable=0;strokeColor=inherit;overflow=hidden;fillColor=none;top=0;left=0;bottom=0;right=0;pointerEvents=1;fontSize=16;align=left;" vertex="1" parent="zytnqdTkWcXbyPXpA95l-82">
          <mxGeometry x="880" width="290" height="190" as="geometry">
            <mxRectangle width="290" height="190" as="alternateBounds" />
          </mxGeometry>
        </mxCell>
        <mxCell id="zytnqdTkWcXbyPXpA95l-88" style="shape=tableRow;horizontal=0;startSize=0;swimlaneHead=0;swimlaneBody=0;strokeColor=inherit;top=0;left=0;bottom=0;right=0;collapsible=0;dropTarget=0;fillColor=none;points=[[0,0.5],[1,0.5]];portConstraint=eastwest;fontSize=16;" parent="zytnqdTkWcXbyPXpA95l-57" vertex="1">
          <mxGeometry y="710" width="1170" height="70" as="geometry" />
        </mxCell>
        <mxCell id="zytnqdTkWcXbyPXpA95l-89" value="Delete License" style="shape=partialRectangle;html=1;whiteSpace=wrap;connectable=0;strokeColor=inherit;overflow=hidden;fillColor=none;top=0;left=0;bottom=0;right=0;pointerEvents=1;fontSize=16;align=left;" parent="zytnqdTkWcXbyPXpA95l-88" vertex="1">
          <mxGeometry width="192" height="70" as="geometry">
            <mxRectangle width="192" height="70" as="alternateBounds" />
          </mxGeometry>
        </mxCell>
        <mxCell id="zytnqdTkWcXbyPXpA95l-90" value="/licenses/{softwareAssetID}" style="shape=partialRectangle;html=1;whiteSpace=wrap;connectable=0;strokeColor=inherit;overflow=hidden;fillColor=none;top=0;left=0;bottom=0;right=0;pointerEvents=1;fontSize=16;align=left;" parent="zytnqdTkWcXbyPXpA95l-88" vertex="1">
          <mxGeometry x="192" width="288" height="70" as="geometry">
            <mxRectangle width="288" height="70" as="alternateBounds" />
          </mxGeometry>
        </mxCell>
        <mxCell id="zytnqdTkWcXbyPXpA95l-91" value="DELETE" style="shape=partialRectangle;html=1;whiteSpace=wrap;connectable=0;strokeColor=inherit;overflow=hidden;fillColor=none;top=0;left=0;bottom=0;right=0;pointerEvents=1;fontSize=16;" parent="zytnqdTkWcXbyPXpA95l-88" vertex="1">
          <mxGeometry x="480" width="100" height="70" as="geometry">
            <mxRectangle width="100" height="70" as="alternateBounds" />
          </mxGeometry>
        </mxCell>
        <mxCell id="zytnqdTkWcXbyPXpA95l-92" value="&lt;ul style=&quot;&quot;&gt;&lt;li&gt;Admin&lt;/li&gt;&lt;li&gt;Asset Manager&lt;/li&gt;&lt;/ul&gt;" style="shape=partialRectangle;html=1;whiteSpace=wrap;connectable=0;strokeColor=inherit;overflow=hidden;fillColor=none;top=0;left=0;bottom=0;right=0;pointerEvents=1;fontSize=16;align=left;" parent="zytnqdTkWcXbyPXpA95l-88" vertex="1">
          <mxGeometry x="580" width="210" height="70" as="geometry">
            <mxRectangle width="210" height="70" as="alternateBounds" />
          </mxGeometry>
        </mxCell>
        <mxCell id="zytnqdTkWcXbyPXpA95l-93" value="204, 404, 401" style="shape=partialRectangle;html=1;whiteSpace=wrap;connectable=0;strokeColor=inherit;overflow=hidden;fillColor=none;top=0;left=0;bottom=0;right=0;pointerEvents=1;fontSize=16;align=left;" parent="zytnqdTkWcXbyPXpA95l-88" vertex="1">
          <mxGeometry x="790" width="90" height="70" as="geometry">
            <mxRectangle width="90" height="70" as="alternateBounds" />
          </mxGeometry>
        </mxCell>
        <mxCell id="CHGXnOnzoU2PrAo-i4mN-14" style="shape=partialRectangle;html=1;whiteSpace=wrap;connectable=0;strokeColor=inherit;overflow=hidden;fillColor=none;top=0;left=0;bottom=0;right=0;pointerEvents=1;fontSize=16;align=left;" vertex="1" parent="zytnqdTkWcXbyPXpA95l-88">
          <mxGeometry x="880" width="290" height="70" as="geometry">
            <mxRectangle width="290" height="70" as="alternateBounds" />
          </mxGeometry>
        </mxCell>
        <mxCell id="zytnqdTkWcXbyPXpA95l-94" value="* Only if authorized Department Manager is assigned the same DepartmentID as the Employee the requested Asset is assigned to,&amp;nbsp;&lt;div&gt;** Only if Asset is Assigned to EmployeeID of the requesting Employee&lt;/div&gt;" style="text;html=1;align=left;verticalAlign=middle;whiteSpace=wrap;rounded=0;" parent="1" vertex="1">
          <mxGeometry y="1990" width="960" height="30" as="geometry" />
        </mxCell>
        <mxCell id="CHGXnOnzoU2PrAo-i4mN-15" value="Asset Assignment Endpoints" style="shape=table;startSize=30;container=1;collapsible=0;childLayout=tableLayout;strokeColor=default;fontSize=16;fontStyle=1" vertex="1" parent="1">
          <mxGeometry x="1210" width="1170" height="407" as="geometry" />
        </mxCell>
        <mxCell id="CHGXnOnzoU2PrAo-i4mN-16" value="" style="shape=tableRow;horizontal=0;startSize=0;swimlaneHead=0;swimlaneBody=0;strokeColor=inherit;top=0;left=0;bottom=0;right=0;collapsible=0;dropTarget=0;fillColor=none;points=[[0,0.5],[1,0.5]];portConstraint=eastwest;fontSize=16;" vertex="1" parent="CHGXnOnzoU2PrAo-i4mN-15">
          <mxGeometry y="30" width="1170" height="50" as="geometry" />
        </mxCell>
        <mxCell id="CHGXnOnzoU2PrAo-i4mN-17" value="Endpoint" style="shape=partialRectangle;html=1;whiteSpace=wrap;connectable=0;strokeColor=#6c8ebf;overflow=hidden;fillColor=#dae8fc;top=0;left=0;bottom=0;right=0;pointerEvents=1;fontSize=16;fontStyle=1" vertex="1" parent="CHGXnOnzoU2PrAo-i4mN-16">
          <mxGeometry width="192" height="50" as="geometry">
            <mxRectangle width="192" height="50" as="alternateBounds" />
          </mxGeometry>
        </mxCell>
        <mxCell id="CHGXnOnzoU2PrAo-i4mN-18" value="Route" style="shape=partialRectangle;html=1;whiteSpace=wrap;connectable=0;strokeColor=#6c8ebf;overflow=hidden;fillColor=#dae8fc;top=0;left=0;bottom=0;right=0;pointerEvents=1;fontSize=16;fontStyle=1" vertex="1" parent="CHGXnOnzoU2PrAo-i4mN-16">
          <mxGeometry x="192" width="288" height="50" as="geometry">
            <mxRectangle width="288" height="50" as="alternateBounds" />
          </mxGeometry>
        </mxCell>
        <mxCell id="CHGXnOnzoU2PrAo-i4mN-19" value="Method" style="shape=partialRectangle;html=1;whiteSpace=wrap;connectable=0;strokeColor=#6c8ebf;overflow=hidden;fillColor=#dae8fc;top=0;left=0;bottom=0;right=0;pointerEvents=1;fontSize=16;fontStyle=1" vertex="1" parent="CHGXnOnzoU2PrAo-i4mN-16">
          <mxGeometry x="480" width="95" height="50" as="geometry">
            <mxRectangle width="95" height="50" as="alternateBounds" />
          </mxGeometry>
        </mxCell>
        <mxCell id="CHGXnOnzoU2PrAo-i4mN-20" value="Roles" style="shape=partialRectangle;html=1;whiteSpace=wrap;connectable=0;strokeColor=#6c8ebf;overflow=hidden;fillColor=#dae8fc;top=0;left=0;bottom=0;right=0;pointerEvents=1;fontSize=16;fontStyle=1" vertex="1" parent="CHGXnOnzoU2PrAo-i4mN-16">
          <mxGeometry x="575" width="215" height="50" as="geometry">
            <mxRectangle width="215" height="50" as="alternateBounds" />
          </mxGeometry>
        </mxCell>
        <mxCell id="CHGXnOnzoU2PrAo-i4mN-21" value="Response" style="shape=partialRectangle;html=1;whiteSpace=wrap;connectable=0;strokeColor=#6c8ebf;overflow=hidden;fillColor=#dae8fc;top=0;left=0;bottom=0;right=0;pointerEvents=1;fontSize=16;fontStyle=1" vertex="1" parent="CHGXnOnzoU2PrAo-i4mN-16">
          <mxGeometry x="790" width="90" height="50" as="geometry">
            <mxRectangle width="90" height="50" as="alternateBounds" />
          </mxGeometry>
        </mxCell>
        <mxCell id="CHGXnOnzoU2PrAo-i4mN-22" value="Body" style="shape=partialRectangle;html=1;whiteSpace=wrap;connectable=0;strokeColor=#6c8ebf;overflow=hidden;fillColor=#dae8fc;top=0;left=0;bottom=0;right=0;pointerEvents=1;fontSize=16;fontStyle=1" vertex="1" parent="CHGXnOnzoU2PrAo-i4mN-16">
          <mxGeometry x="880" width="290" height="50" as="geometry">
            <mxRectangle width="290" height="50" as="alternateBounds" />
          </mxGeometry>
        </mxCell>
        <mxCell id="CHGXnOnzoU2PrAo-i4mN-72" style="shape=tableRow;horizontal=0;startSize=0;swimlaneHead=0;swimlaneBody=0;strokeColor=inherit;top=0;left=0;bottom=0;right=0;collapsible=0;dropTarget=0;fillColor=none;points=[[0,0.5],[1,0.5]];portConstraint=eastwest;fontSize=16;" vertex="1" parent="CHGXnOnzoU2PrAo-i4mN-15">
          <mxGeometry y="80" width="1170" height="87" as="geometry" />
        </mxCell>
        <mxCell id="CHGXnOnzoU2PrAo-i4mN-73" value="Get assignemt history for one asset" style="shape=partialRectangle;html=1;whiteSpace=wrap;connectable=0;strokeColor=inherit;overflow=hidden;fillColor=none;top=0;left=0;bottom=0;right=0;pointerEvents=1;fontSize=16;align=left;" vertex="1" parent="CHGXnOnzoU2PrAo-i4mN-72">
          <mxGeometry width="192" height="87" as="geometry">
            <mxRectangle width="192" height="87" as="alternateBounds" />
          </mxGeometry>
        </mxCell>
        <mxCell id="CHGXnOnzoU2PrAo-i4mN-74" value="/assets/{assetID}/assignments" style="shape=partialRectangle;html=1;whiteSpace=wrap;connectable=0;strokeColor=inherit;overflow=hidden;fillColor=none;top=0;left=0;bottom=0;right=0;pointerEvents=1;fontSize=16;align=left;" vertex="1" parent="CHGXnOnzoU2PrAo-i4mN-72">
          <mxGeometry x="192" width="288" height="87" as="geometry">
            <mxRectangle width="288" height="87" as="alternateBounds" />
          </mxGeometry>
        </mxCell>
        <mxCell id="CHGXnOnzoU2PrAo-i4mN-75" value="GET" style="shape=partialRectangle;html=1;whiteSpace=wrap;connectable=0;strokeColor=inherit;overflow=hidden;fillColor=none;top=0;left=0;bottom=0;right=0;pointerEvents=1;fontSize=16;" vertex="1" parent="CHGXnOnzoU2PrAo-i4mN-72">
          <mxGeometry x="480" width="95" height="87" as="geometry">
            <mxRectangle width="95" height="87" as="alternateBounds" />
          </mxGeometry>
        </mxCell>
        <mxCell id="CHGXnOnzoU2PrAo-i4mN-76" value="&lt;ul&gt;&lt;li&gt;Admin&lt;/li&gt;&lt;li&gt;Asset Manager&lt;/li&gt;&lt;li&gt;Auditor&lt;/li&gt;&lt;/ul&gt;" style="shape=partialRectangle;html=1;whiteSpace=wrap;connectable=0;strokeColor=inherit;overflow=hidden;fillColor=none;top=0;left=0;bottom=0;right=0;pointerEvents=1;fontSize=16;align=left;verticalAlign=bottom;" vertex="1" parent="CHGXnOnzoU2PrAo-i4mN-72">
          <mxGeometry x="575" width="215" height="87" as="geometry">
            <mxRectangle width="215" height="87" as="alternateBounds" />
          </mxGeometry>
        </mxCell>
        <mxCell id="CHGXnOnzoU2PrAo-i4mN-77" value="200(JSON), 404, 401" style="shape=partialRectangle;html=1;whiteSpace=wrap;connectable=0;strokeColor=inherit;overflow=hidden;fillColor=none;top=0;left=0;bottom=0;right=0;pointerEvents=1;fontSize=16;align=left;" vertex="1" parent="CHGXnOnzoU2PrAo-i4mN-72">
          <mxGeometry x="790" width="90" height="87" as="geometry">
            <mxRectangle width="90" height="87" as="alternateBounds" />
          </mxGeometry>
        </mxCell>
        <mxCell id="CHGXnOnzoU2PrAo-i4mN-78" style="shape=partialRectangle;html=1;whiteSpace=wrap;connectable=0;strokeColor=inherit;overflow=hidden;fillColor=none;top=0;left=0;bottom=0;right=0;pointerEvents=1;fontSize=16;align=left;" vertex="1" parent="CHGXnOnzoU2PrAo-i4mN-72">
          <mxGeometry x="880" width="290" height="87" as="geometry">
            <mxRectangle width="290" height="87" as="alternateBounds" />
          </mxGeometry>
        </mxCell>
        <mxCell id="CHGXnOnzoU2PrAo-i4mN-93" style="shape=tableRow;horizontal=0;startSize=0;swimlaneHead=0;swimlaneBody=0;strokeColor=inherit;top=0;left=0;bottom=0;right=0;collapsible=0;dropTarget=0;fillColor=none;points=[[0,0.5],[1,0.5]];portConstraint=eastwest;fontSize=16;" vertex="1" parent="CHGXnOnzoU2PrAo-i4mN-15">
          <mxGeometry y="167" width="1170" height="110" as="geometry" />
        </mxCell>
        <mxCell id="CHGXnOnzoU2PrAo-i4mN-94" value="Assign Asset" style="shape=partialRectangle;html=1;whiteSpace=wrap;connectable=0;strokeColor=inherit;overflow=hidden;fillColor=none;top=0;left=0;bottom=0;right=0;pointerEvents=1;fontSize=16;align=left;" vertex="1" parent="CHGXnOnzoU2PrAo-i4mN-93">
          <mxGeometry width="192" height="110" as="geometry">
            <mxRectangle width="192" height="110" as="alternateBounds" />
          </mxGeometry>
        </mxCell>
        <mxCell id="CHGXnOnzoU2PrAo-i4mN-95" value="/assets/assignments/" style="shape=partialRectangle;html=1;whiteSpace=wrap;connectable=0;strokeColor=inherit;overflow=hidden;fillColor=none;top=0;left=0;bottom=0;right=0;pointerEvents=1;fontSize=16;align=left;" vertex="1" parent="CHGXnOnzoU2PrAo-i4mN-93">
          <mxGeometry x="192" width="288" height="110" as="geometry">
            <mxRectangle width="288" height="110" as="alternateBounds" />
          </mxGeometry>
        </mxCell>
        <mxCell id="CHGXnOnzoU2PrAo-i4mN-96" value="POST" style="shape=partialRectangle;html=1;whiteSpace=wrap;connectable=0;strokeColor=inherit;overflow=hidden;fillColor=none;top=0;left=0;bottom=0;right=0;pointerEvents=1;fontSize=16;" vertex="1" parent="CHGXnOnzoU2PrAo-i4mN-93">
          <mxGeometry x="480" width="95" height="110" as="geometry">
            <mxRectangle width="95" height="110" as="alternateBounds" />
          </mxGeometry>
        </mxCell>
        <mxCell id="CHGXnOnzoU2PrAo-i4mN-97" value="&lt;ul&gt;&lt;li&gt;Admin&lt;/li&gt;&lt;li&gt;Asset Manager&lt;/li&gt;&lt;/ul&gt;" style="shape=partialRectangle;html=1;whiteSpace=wrap;connectable=0;strokeColor=inherit;overflow=hidden;fillColor=none;top=0;left=0;bottom=0;right=0;pointerEvents=1;fontSize=16;align=left;verticalAlign=middle;" vertex="1" parent="CHGXnOnzoU2PrAo-i4mN-93">
          <mxGeometry x="575" width="215" height="110" as="geometry">
            <mxRectangle width="215" height="110" as="alternateBounds" />
          </mxGeometry>
        </mxCell>
        <mxCell id="CHGXnOnzoU2PrAo-i4mN-98" value="201, 400, 401" style="shape=partialRectangle;html=1;whiteSpace=wrap;connectable=0;strokeColor=inherit;overflow=hidden;fillColor=none;top=0;left=0;bottom=0;right=0;pointerEvents=1;fontSize=16;align=left;" vertex="1" parent="CHGXnOnzoU2PrAo-i4mN-93">
          <mxGeometry x="790" width="90" height="110" as="geometry">
            <mxRectangle width="90" height="110" as="alternateBounds" />
          </mxGeometry>
        </mxCell>
        <mxCell id="CHGXnOnzoU2PrAo-i4mN-99" value="{&lt;div&gt;&lt;span style=&quot;white-space: pre;&quot;&gt;&#x9;&lt;/span&gt;AssetID: int&lt;br&gt;&lt;/div&gt;&lt;div&gt;&lt;span style=&quot;white-space: pre;&quot;&gt;&#x9;&lt;/span&gt;DepartmentID: int&lt;br&gt;&lt;/div&gt;&lt;div&gt;&lt;span style=&quot;white-space: pre;&quot;&gt;&#x9;&lt;/span&gt;EmployeeID: int?&lt;/div&gt;&lt;div&gt;}&lt;/div&gt;" style="shape=partialRectangle;html=1;whiteSpace=wrap;connectable=0;strokeColor=inherit;overflow=hidden;fillColor=none;top=0;left=0;bottom=0;right=0;pointerEvents=1;fontSize=16;align=left;" vertex="1" parent="CHGXnOnzoU2PrAo-i4mN-93">
          <mxGeometry x="880" width="290" height="110" as="geometry">
            <mxRectangle width="290" height="110" as="alternateBounds" />
          </mxGeometry>
        </mxCell>
        <mxCell id="CHGXnOnzoU2PrAo-i4mN-107" style="shape=tableRow;horizontal=0;startSize=0;swimlaneHead=0;swimlaneBody=0;strokeColor=inherit;top=0;left=0;bottom=0;right=0;collapsible=0;dropTarget=0;fillColor=none;points=[[0,0.5],[1,0.5]];portConstraint=eastwest;fontSize=16;" vertex="1" parent="CHGXnOnzoU2PrAo-i4mN-15">
          <mxGeometry y="277" width="1170" height="130" as="geometry" />
        </mxCell>
        <mxCell id="CHGXnOnzoU2PrAo-i4mN-108" value="Reassign Asset / Return Asset" style="shape=partialRectangle;html=1;whiteSpace=wrap;connectable=0;strokeColor=inherit;overflow=hidden;fillColor=none;top=0;left=0;bottom=0;right=0;pointerEvents=1;fontSize=16;align=left;" vertex="1" parent="CHGXnOnzoU2PrAo-i4mN-107">
          <mxGeometry width="192" height="130" as="geometry">
            <mxRectangle width="192" height="130" as="alternateBounds" />
          </mxGeometry>
        </mxCell>
        <mxCell id="CHGXnOnzoU2PrAo-i4mN-109" value="/assets/assignments/&lt;div&gt;&lt;span style=&quot;white-space: pre;&quot;&gt;&#x9;&lt;/span&gt;{assetAssignmentID}&lt;/div&gt;" style="shape=partialRectangle;html=1;whiteSpace=wrap;connectable=0;strokeColor=inherit;overflow=hidden;fillColor=none;top=0;left=0;bottom=0;right=0;pointerEvents=1;fontSize=16;align=left;" vertex="1" parent="CHGXnOnzoU2PrAo-i4mN-107">
          <mxGeometry x="192" width="288" height="130" as="geometry">
            <mxRectangle width="288" height="130" as="alternateBounds" />
          </mxGeometry>
        </mxCell>
        <mxCell id="CHGXnOnzoU2PrAo-i4mN-110" value="PUT" style="shape=partialRectangle;html=1;whiteSpace=wrap;connectable=0;strokeColor=inherit;overflow=hidden;fillColor=none;top=0;left=0;bottom=0;right=0;pointerEvents=1;fontSize=16;" vertex="1" parent="CHGXnOnzoU2PrAo-i4mN-107">
          <mxGeometry x="480" width="95" height="130" as="geometry">
            <mxRectangle width="95" height="130" as="alternateBounds" />
          </mxGeometry>
        </mxCell>
        <mxCell id="CHGXnOnzoU2PrAo-i4mN-111" value="&lt;ul&gt;&lt;li&gt;Admin&lt;/li&gt;&lt;li&gt;Asset Manager&lt;/li&gt;&lt;/ul&gt;" style="shape=partialRectangle;html=1;whiteSpace=wrap;connectable=0;strokeColor=inherit;overflow=hidden;fillColor=none;top=0;left=0;bottom=0;right=0;pointerEvents=1;fontSize=16;align=left;verticalAlign=middle;" vertex="1" parent="CHGXnOnzoU2PrAo-i4mN-107">
          <mxGeometry x="575" width="215" height="130" as="geometry">
            <mxRectangle width="215" height="130" as="alternateBounds" />
          </mxGeometry>
        </mxCell>
        <mxCell id="CHGXnOnzoU2PrAo-i4mN-112" value="204, 400, 401" style="shape=partialRectangle;html=1;whiteSpace=wrap;connectable=0;strokeColor=inherit;overflow=hidden;fillColor=none;top=0;left=0;bottom=0;right=0;pointerEvents=1;fontSize=16;align=left;" vertex="1" parent="CHGXnOnzoU2PrAo-i4mN-107">
          <mxGeometry x="790" width="90" height="130" as="geometry">
            <mxRectangle width="90" height="130" as="alternateBounds" />
          </mxGeometry>
        </mxCell>
        <mxCell id="CHGXnOnzoU2PrAo-i4mN-113" value="{&lt;div&gt;&lt;span style=&quot;white-space: pre;&quot;&gt;&#x9;&lt;/span&gt;AssetID: int&lt;/div&gt;&lt;div&gt;&lt;span style=&quot;white-space: pre;&quot;&gt;&#x9;&lt;/span&gt;DepartmentID: int&lt;/div&gt;&lt;div&gt;&lt;span style=&quot;white-space: pre;&quot;&gt;&#x9;&lt;/span&gt;EmployeeID: int?&lt;/div&gt;&lt;div&gt;&lt;span style=&quot;white-space: pre;&quot;&gt;&#x9;&lt;/span&gt;ReturnDate: date?&lt;br&gt;&lt;div&gt;}&lt;/div&gt;&lt;/div&gt;" style="shape=partialRectangle;html=1;whiteSpace=wrap;connectable=0;strokeColor=inherit;overflow=hidden;fillColor=none;top=0;left=0;bottom=0;right=0;pointerEvents=1;fontSize=16;align=left;" vertex="1" parent="CHGXnOnzoU2PrAo-i4mN-107">
          <mxGeometry x="880" width="290" height="130" as="geometry">
            <mxRectangle width="290" height="130" as="alternateBounds" />
          </mxGeometry>
        </mxCell>
        <mxCell id="CHGXnOnzoU2PrAo-i4mN-156" value="" style="shape=table;startSize=0;container=1;collapsible=0;childLayout=tableLayout;strokeColor=default;fontSize=16;fontStyle=1;fillColor=none;" vertex="1" parent="1">
          <mxGeometry x="1210" y="407" width="1170" height="362" as="geometry" />
        </mxCell>
        <mxCell id="CHGXnOnzoU2PrAo-i4mN-157" value="" style="shape=tableRow;horizontal=0;startSize=0;swimlaneHead=0;swimlaneBody=0;strokeColor=inherit;top=0;left=0;bottom=0;right=0;collapsible=0;dropTarget=0;fillColor=none;points=[[0,0.5],[1,0.5]];portConstraint=eastwest;fontSize=16;" vertex="1" parent="CHGXnOnzoU2PrAo-i4mN-156">
          <mxGeometry width="1170" height="20" as="geometry" />
        </mxCell>
        <mxCell id="CHGXnOnzoU2PrAo-i4mN-158" value="" style="shape=partialRectangle;html=1;whiteSpace=wrap;connectable=0;strokeColor=#6c8ebf;overflow=hidden;fillColor=#dae8fc;top=0;left=0;bottom=0;right=0;pointerEvents=1;fontSize=16;fontStyle=1" vertex="1" parent="CHGXnOnzoU2PrAo-i4mN-157">
          <mxGeometry width="192" height="20" as="geometry">
            <mxRectangle width="192" height="20" as="alternateBounds" />
          </mxGeometry>
        </mxCell>
        <mxCell id="CHGXnOnzoU2PrAo-i4mN-159" value="" style="shape=partialRectangle;html=1;whiteSpace=wrap;connectable=0;strokeColor=#6c8ebf;overflow=hidden;fillColor=#dae8fc;top=0;left=0;bottom=0;right=0;pointerEvents=1;fontSize=16;fontStyle=1" vertex="1" parent="CHGXnOnzoU2PrAo-i4mN-157">
          <mxGeometry x="192" width="288" height="20" as="geometry">
            <mxRectangle width="288" height="20" as="alternateBounds" />
          </mxGeometry>
        </mxCell>
        <mxCell id="CHGXnOnzoU2PrAo-i4mN-160" value="" style="shape=partialRectangle;html=1;whiteSpace=wrap;connectable=0;strokeColor=#6c8ebf;overflow=hidden;fillColor=#dae8fc;top=0;left=0;bottom=0;right=0;pointerEvents=1;fontSize=16;fontStyle=1" vertex="1" parent="CHGXnOnzoU2PrAo-i4mN-157">
          <mxGeometry x="480" width="95" height="20" as="geometry">
            <mxRectangle width="95" height="20" as="alternateBounds" />
          </mxGeometry>
        </mxCell>
        <mxCell id="CHGXnOnzoU2PrAo-i4mN-161" value="" style="shape=partialRectangle;html=1;whiteSpace=wrap;connectable=0;strokeColor=#6c8ebf;overflow=hidden;fillColor=#dae8fc;top=0;left=0;bottom=0;right=0;pointerEvents=1;fontSize=16;fontStyle=1" vertex="1" parent="CHGXnOnzoU2PrAo-i4mN-157">
          <mxGeometry x="575" width="215" height="20" as="geometry">
            <mxRectangle width="215" height="20" as="alternateBounds" />
          </mxGeometry>
        </mxCell>
        <mxCell id="CHGXnOnzoU2PrAo-i4mN-162" value="" style="shape=partialRectangle;html=1;whiteSpace=wrap;connectable=0;strokeColor=#6c8ebf;overflow=hidden;fillColor=#dae8fc;top=0;left=0;bottom=0;right=0;pointerEvents=1;fontSize=16;fontStyle=1" vertex="1" parent="CHGXnOnzoU2PrAo-i4mN-157">
          <mxGeometry x="790" width="90" height="20" as="geometry">
            <mxRectangle width="90" height="20" as="alternateBounds" />
          </mxGeometry>
        </mxCell>
        <mxCell id="CHGXnOnzoU2PrAo-i4mN-163" value="" style="shape=partialRectangle;html=1;whiteSpace=wrap;connectable=0;strokeColor=#6c8ebf;overflow=hidden;fillColor=#dae8fc;top=0;left=0;bottom=0;right=0;pointerEvents=1;fontSize=16;fontStyle=1" vertex="1" parent="CHGXnOnzoU2PrAo-i4mN-157">
          <mxGeometry x="880" width="290" height="20" as="geometry">
            <mxRectangle width="290" height="20" as="alternateBounds" />
          </mxGeometry>
        </mxCell>
        <mxCell id="CHGXnOnzoU2PrAo-i4mN-171" style="shape=tableRow;horizontal=0;startSize=0;swimlaneHead=0;swimlaneBody=0;strokeColor=inherit;top=0;left=0;bottom=0;right=0;collapsible=0;dropTarget=0;fillColor=none;points=[[0,0.5],[1,0.5]];portConstraint=eastwest;fontSize=16;" vertex="1" parent="CHGXnOnzoU2PrAo-i4mN-156">
          <mxGeometry y="20" width="1170" height="91" as="geometry" />
        </mxCell>
        <mxCell id="CHGXnOnzoU2PrAo-i4mN-172" value="Get assignemt history for one license" style="shape=partialRectangle;html=1;whiteSpace=wrap;connectable=0;strokeColor=inherit;overflow=hidden;fillColor=none;top=0;left=0;bottom=0;right=0;pointerEvents=1;fontSize=16;align=left;" vertex="1" parent="CHGXnOnzoU2PrAo-i4mN-171">
          <mxGeometry width="192" height="91" as="geometry">
            <mxRectangle width="192" height="91" as="alternateBounds" />
          </mxGeometry>
        </mxCell>
        <mxCell id="CHGXnOnzoU2PrAo-i4mN-173" value="/licenses/{softwareAssetID}/&lt;div&gt;&lt;span style=&quot;white-space: pre;&quot;&gt;&#x9;&lt;/span&gt;assignments&lt;/div&gt;" style="shape=partialRectangle;html=1;whiteSpace=wrap;connectable=0;strokeColor=inherit;overflow=hidden;fillColor=none;top=0;left=0;bottom=0;right=0;pointerEvents=1;fontSize=16;align=left;" vertex="1" parent="CHGXnOnzoU2PrAo-i4mN-171">
          <mxGeometry x="192" width="288" height="91" as="geometry">
            <mxRectangle width="288" height="91" as="alternateBounds" />
          </mxGeometry>
        </mxCell>
        <mxCell id="CHGXnOnzoU2PrAo-i4mN-174" value="GET" style="shape=partialRectangle;html=1;whiteSpace=wrap;connectable=0;strokeColor=inherit;overflow=hidden;fillColor=none;top=0;left=0;bottom=0;right=0;pointerEvents=1;fontSize=16;" vertex="1" parent="CHGXnOnzoU2PrAo-i4mN-171">
          <mxGeometry x="480" width="95" height="91" as="geometry">
            <mxRectangle width="95" height="91" as="alternateBounds" />
          </mxGeometry>
        </mxCell>
        <mxCell id="CHGXnOnzoU2PrAo-i4mN-175" value="&lt;ul&gt;&lt;li&gt;Admin&lt;/li&gt;&lt;li&gt;Asset Manager&lt;/li&gt;&lt;li&gt;Auditor&lt;/li&gt;&lt;/ul&gt;" style="shape=partialRectangle;html=1;whiteSpace=wrap;connectable=0;strokeColor=inherit;overflow=hidden;fillColor=none;top=0;left=0;bottom=0;right=0;pointerEvents=1;fontSize=16;align=left;verticalAlign=bottom;" vertex="1" parent="CHGXnOnzoU2PrAo-i4mN-171">
          <mxGeometry x="575" width="215" height="91" as="geometry">
            <mxRectangle width="215" height="91" as="alternateBounds" />
          </mxGeometry>
        </mxCell>
        <mxCell id="CHGXnOnzoU2PrAo-i4mN-176" value="200(JSON), 404, 401" style="shape=partialRectangle;html=1;whiteSpace=wrap;connectable=0;strokeColor=inherit;overflow=hidden;fillColor=none;top=0;left=0;bottom=0;right=0;pointerEvents=1;fontSize=16;align=left;" vertex="1" parent="CHGXnOnzoU2PrAo-i4mN-171">
          <mxGeometry x="790" width="90" height="91" as="geometry">
            <mxRectangle width="90" height="91" as="alternateBounds" />
          </mxGeometry>
        </mxCell>
        <mxCell id="CHGXnOnzoU2PrAo-i4mN-177" style="shape=partialRectangle;html=1;whiteSpace=wrap;connectable=0;strokeColor=inherit;overflow=hidden;fillColor=none;top=0;left=0;bottom=0;right=0;pointerEvents=1;fontSize=16;align=left;" vertex="1" parent="CHGXnOnzoU2PrAo-i4mN-171">
          <mxGeometry x="880" width="290" height="91" as="geometry">
            <mxRectangle width="290" height="91" as="alternateBounds" />
          </mxGeometry>
        </mxCell>
        <mxCell id="CHGXnOnzoU2PrAo-i4mN-192" style="shape=tableRow;horizontal=0;startSize=0;swimlaneHead=0;swimlaneBody=0;strokeColor=inherit;top=0;left=0;bottom=0;right=0;collapsible=0;dropTarget=0;fillColor=none;points=[[0,0.5],[1,0.5]];portConstraint=eastwest;fontSize=16;" vertex="1" parent="CHGXnOnzoU2PrAo-i4mN-156">
          <mxGeometry y="111" width="1170" height="115" as="geometry" />
        </mxCell>
        <mxCell id="CHGXnOnzoU2PrAo-i4mN-193" value="Assign License" style="shape=partialRectangle;html=1;whiteSpace=wrap;connectable=0;strokeColor=inherit;overflow=hidden;fillColor=none;top=0;left=0;bottom=0;right=0;pointerEvents=1;fontSize=16;align=left;" vertex="1" parent="CHGXnOnzoU2PrAo-i4mN-192">
          <mxGeometry width="192" height="115" as="geometry">
            <mxRectangle width="192" height="115" as="alternateBounds" />
          </mxGeometry>
        </mxCell>
        <mxCell id="CHGXnOnzoU2PrAo-i4mN-194" value="/licenses/assignments/" style="shape=partialRectangle;html=1;whiteSpace=wrap;connectable=0;strokeColor=inherit;overflow=hidden;fillColor=none;top=0;left=0;bottom=0;right=0;pointerEvents=1;fontSize=16;align=left;" vertex="1" parent="CHGXnOnzoU2PrAo-i4mN-192">
          <mxGeometry x="192" width="288" height="115" as="geometry">
            <mxRectangle width="288" height="115" as="alternateBounds" />
          </mxGeometry>
        </mxCell>
        <mxCell id="CHGXnOnzoU2PrAo-i4mN-195" value="POST" style="shape=partialRectangle;html=1;whiteSpace=wrap;connectable=0;strokeColor=inherit;overflow=hidden;fillColor=none;top=0;left=0;bottom=0;right=0;pointerEvents=1;fontSize=16;" vertex="1" parent="CHGXnOnzoU2PrAo-i4mN-192">
          <mxGeometry x="480" width="95" height="115" as="geometry">
            <mxRectangle width="95" height="115" as="alternateBounds" />
          </mxGeometry>
        </mxCell>
        <mxCell id="CHGXnOnzoU2PrAo-i4mN-196" value="&lt;ul&gt;&lt;li&gt;Admin&lt;/li&gt;&lt;li&gt;Asset Manager&lt;/li&gt;&lt;/ul&gt;" style="shape=partialRectangle;html=1;whiteSpace=wrap;connectable=0;strokeColor=inherit;overflow=hidden;fillColor=none;top=0;left=0;bottom=0;right=0;pointerEvents=1;fontSize=16;align=left;verticalAlign=middle;" vertex="1" parent="CHGXnOnzoU2PrAo-i4mN-192">
          <mxGeometry x="575" width="215" height="115" as="geometry">
            <mxRectangle width="215" height="115" as="alternateBounds" />
          </mxGeometry>
        </mxCell>
        <mxCell id="CHGXnOnzoU2PrAo-i4mN-197" value="201, 400, 401" style="shape=partialRectangle;html=1;whiteSpace=wrap;connectable=0;strokeColor=inherit;overflow=hidden;fillColor=none;top=0;left=0;bottom=0;right=0;pointerEvents=1;fontSize=16;align=left;" vertex="1" parent="CHGXnOnzoU2PrAo-i4mN-192">
          <mxGeometry x="790" width="90" height="115" as="geometry">
            <mxRectangle width="90" height="115" as="alternateBounds" />
          </mxGeometry>
        </mxCell>
        <mxCell id="CHGXnOnzoU2PrAo-i4mN-198" value="{&lt;div&gt;&lt;span style=&quot;white-space: pre;&quot;&gt;&#x9;&lt;/span&gt;SoftwareAssetID&lt;br&gt;&lt;div&gt;&lt;span style=&quot;white-space: pre;&quot;&gt;&#x9;&lt;/span&gt;AssetID: int&lt;/div&gt;&lt;div&gt;&lt;span style=&quot;white-space: pre;&quot;&gt;&#x9;&lt;/span&gt;EmployeeID: int?&lt;/div&gt;&lt;div&gt;}&lt;/div&gt;&lt;/div&gt;" style="shape=partialRectangle;html=1;whiteSpace=wrap;connectable=0;strokeColor=inherit;overflow=hidden;fillColor=none;top=0;left=0;bottom=0;right=0;pointerEvents=1;fontSize=16;align=left;" vertex="1" parent="CHGXnOnzoU2PrAo-i4mN-192">
          <mxGeometry x="880" width="290" height="115" as="geometry">
            <mxRectangle width="290" height="115" as="alternateBounds" />
          </mxGeometry>
        </mxCell>
        <mxCell id="CHGXnOnzoU2PrAo-i4mN-199" style="shape=tableRow;horizontal=0;startSize=0;swimlaneHead=0;swimlaneBody=0;strokeColor=inherit;top=0;left=0;bottom=0;right=0;collapsible=0;dropTarget=0;fillColor=none;points=[[0,0.5],[1,0.5]];portConstraint=eastwest;fontSize=16;" vertex="1" parent="CHGXnOnzoU2PrAo-i4mN-156">
          <mxGeometry y="226" width="1170" height="136" as="geometry" />
        </mxCell>
        <mxCell id="CHGXnOnzoU2PrAo-i4mN-200" value="Reassign License /&amp;nbsp;&lt;div&gt;Return License&lt;/div&gt;" style="shape=partialRectangle;html=1;whiteSpace=wrap;connectable=0;strokeColor=inherit;overflow=hidden;fillColor=none;top=0;left=0;bottom=0;right=0;pointerEvents=1;fontSize=16;align=left;" vertex="1" parent="CHGXnOnzoU2PrAo-i4mN-199">
          <mxGeometry width="192" height="136" as="geometry">
            <mxRectangle width="192" height="136" as="alternateBounds" />
          </mxGeometry>
        </mxCell>
        <mxCell id="CHGXnOnzoU2PrAo-i4mN-201" value="/licenses/assignments/&lt;div&gt;&lt;span style=&quot;white-space: pre;&quot;&gt;&#x9;&lt;/span&gt;{assetAssignmentID}&lt;/div&gt;" style="shape=partialRectangle;html=1;whiteSpace=wrap;connectable=0;strokeColor=inherit;overflow=hidden;fillColor=none;top=0;left=0;bottom=0;right=0;pointerEvents=1;fontSize=16;align=left;" vertex="1" parent="CHGXnOnzoU2PrAo-i4mN-199">
          <mxGeometry x="192" width="288" height="136" as="geometry">
            <mxRectangle width="288" height="136" as="alternateBounds" />
          </mxGeometry>
        </mxCell>
        <mxCell id="CHGXnOnzoU2PrAo-i4mN-202" value="PUT" style="shape=partialRectangle;html=1;whiteSpace=wrap;connectable=0;strokeColor=inherit;overflow=hidden;fillColor=none;top=0;left=0;bottom=0;right=0;pointerEvents=1;fontSize=16;" vertex="1" parent="CHGXnOnzoU2PrAo-i4mN-199">
          <mxGeometry x="480" width="95" height="136" as="geometry">
            <mxRectangle width="95" height="136" as="alternateBounds" />
          </mxGeometry>
        </mxCell>
        <mxCell id="CHGXnOnzoU2PrAo-i4mN-203" value="&lt;ul&gt;&lt;li&gt;Admin&lt;/li&gt;&lt;li&gt;Asset Manager&lt;/li&gt;&lt;/ul&gt;" style="shape=partialRectangle;html=1;whiteSpace=wrap;connectable=0;strokeColor=inherit;overflow=hidden;fillColor=none;top=0;left=0;bottom=0;right=0;pointerEvents=1;fontSize=16;align=left;verticalAlign=middle;" vertex="1" parent="CHGXnOnzoU2PrAo-i4mN-199">
          <mxGeometry x="575" width="215" height="136" as="geometry">
            <mxRectangle width="215" height="136" as="alternateBounds" />
          </mxGeometry>
        </mxCell>
        <mxCell id="CHGXnOnzoU2PrAo-i4mN-204" value="204, 400, 401" style="shape=partialRectangle;html=1;whiteSpace=wrap;connectable=0;strokeColor=inherit;overflow=hidden;fillColor=none;top=0;left=0;bottom=0;right=0;pointerEvents=1;fontSize=16;align=left;" vertex="1" parent="CHGXnOnzoU2PrAo-i4mN-199">
          <mxGeometry x="790" width="90" height="136" as="geometry">
            <mxRectangle width="90" height="136" as="alternateBounds" />
          </mxGeometry>
        </mxCell>
        <mxCell id="CHGXnOnzoU2PrAo-i4mN-205" value="{&lt;div&gt;&lt;span style=&quot;white-space: pre;&quot;&gt;&#x9;&lt;/span&gt;SoftwareAssetID: int&lt;/div&gt;&lt;div&gt;&lt;span style=&quot;white-space: pre;&quot;&gt;&#x9;&lt;/span&gt;AssetID: int&lt;/div&gt;&lt;div&gt;&lt;span style=&quot;white-space: pre;&quot;&gt;&#x9;&lt;/span&gt;EmployeeID: int?&lt;/div&gt;&lt;div&gt;&lt;span style=&quot;white-space: pre;&quot;&gt;&#x9;&lt;/span&gt;ReturnDate: date?&lt;br&gt;&lt;div&gt;}&lt;/div&gt;&lt;/div&gt;" style="shape=partialRectangle;html=1;whiteSpace=wrap;connectable=0;strokeColor=inherit;overflow=hidden;fillColor=none;top=0;left=0;bottom=0;right=0;pointerEvents=1;fontSize=16;align=left;" vertex="1" parent="CHGXnOnzoU2PrAo-i4mN-199">
          <mxGeometry x="880" width="290" height="136" as="geometry">
            <mxRectangle width="290" height="136" as="alternateBounds" />
          </mxGeometry>
        </mxCell>
        <mxCell id="CHGXnOnzoU2PrAo-i4mN-213" value="Asset Request Endpoints" style="shape=table;startSize=30;container=1;collapsible=0;childLayout=tableLayout;strokeColor=default;fontSize=16;fontStyle=1" vertex="1" parent="1">
          <mxGeometry x="1210" y="769" width="1170" height="771" as="geometry" />
        </mxCell>
        <mxCell id="CHGXnOnzoU2PrAo-i4mN-214" value="" style="shape=tableRow;horizontal=0;startSize=0;swimlaneHead=0;swimlaneBody=0;strokeColor=inherit;top=0;left=0;bottom=0;right=0;collapsible=0;dropTarget=0;fillColor=none;points=[[0,0.5],[1,0.5]];portConstraint=eastwest;fontSize=16;" vertex="1" parent="CHGXnOnzoU2PrAo-i4mN-213">
          <mxGeometry y="30" width="1170" height="20" as="geometry" />
        </mxCell>
        <mxCell id="CHGXnOnzoU2PrAo-i4mN-215" value="" style="shape=partialRectangle;html=1;whiteSpace=wrap;connectable=0;strokeColor=#6c8ebf;overflow=hidden;fillColor=#dae8fc;top=0;left=0;bottom=0;right=0;pointerEvents=1;fontSize=16;fontStyle=1" vertex="1" parent="CHGXnOnzoU2PrAo-i4mN-214">
          <mxGeometry width="192" height="20" as="geometry">
            <mxRectangle width="192" height="20" as="alternateBounds" />
          </mxGeometry>
        </mxCell>
        <mxCell id="CHGXnOnzoU2PrAo-i4mN-216" value="" style="shape=partialRectangle;html=1;whiteSpace=wrap;connectable=0;strokeColor=#6c8ebf;overflow=hidden;fillColor=#dae8fc;top=0;left=0;bottom=0;right=0;pointerEvents=1;fontSize=16;fontStyle=1" vertex="1" parent="CHGXnOnzoU2PrAo-i4mN-214">
          <mxGeometry x="192" width="288" height="20" as="geometry">
            <mxRectangle width="288" height="20" as="alternateBounds" />
          </mxGeometry>
        </mxCell>
        <mxCell id="CHGXnOnzoU2PrAo-i4mN-217" value="" style="shape=partialRectangle;html=1;whiteSpace=wrap;connectable=0;strokeColor=#6c8ebf;overflow=hidden;fillColor=#dae8fc;top=0;left=0;bottom=0;right=0;pointerEvents=1;fontSize=16;fontStyle=1" vertex="1" parent="CHGXnOnzoU2PrAo-i4mN-214">
          <mxGeometry x="480" width="95" height="20" as="geometry">
            <mxRectangle width="95" height="20" as="alternateBounds" />
          </mxGeometry>
        </mxCell>
        <mxCell id="CHGXnOnzoU2PrAo-i4mN-218" value="" style="shape=partialRectangle;html=1;whiteSpace=wrap;connectable=0;strokeColor=#6c8ebf;overflow=hidden;fillColor=#dae8fc;top=0;left=0;bottom=0;right=0;pointerEvents=1;fontSize=16;fontStyle=1" vertex="1" parent="CHGXnOnzoU2PrAo-i4mN-214">
          <mxGeometry x="575" width="215" height="20" as="geometry">
            <mxRectangle width="215" height="20" as="alternateBounds" />
          </mxGeometry>
        </mxCell>
        <mxCell id="CHGXnOnzoU2PrAo-i4mN-219" value="" style="shape=partialRectangle;html=1;whiteSpace=wrap;connectable=0;strokeColor=#6c8ebf;overflow=hidden;fillColor=#dae8fc;top=0;left=0;bottom=0;right=0;pointerEvents=1;fontSize=16;fontStyle=1" vertex="1" parent="CHGXnOnzoU2PrAo-i4mN-214">
          <mxGeometry x="790" width="90" height="20" as="geometry">
            <mxRectangle width="90" height="20" as="alternateBounds" />
          </mxGeometry>
        </mxCell>
        <mxCell id="CHGXnOnzoU2PrAo-i4mN-220" value="" style="shape=partialRectangle;html=1;whiteSpace=wrap;connectable=0;strokeColor=#6c8ebf;overflow=hidden;fillColor=#dae8fc;top=0;left=0;bottom=0;right=0;pointerEvents=1;fontSize=16;fontStyle=1" vertex="1" parent="CHGXnOnzoU2PrAo-i4mN-214">
          <mxGeometry x="880" width="290" height="20" as="geometry">
            <mxRectangle width="290" height="20" as="alternateBounds" />
          </mxGeometry>
        </mxCell>
        <mxCell id="CHGXnOnzoU2PrAo-i4mN-221" style="shape=tableRow;horizontal=0;startSize=0;swimlaneHead=0;swimlaneBody=0;strokeColor=inherit;top=0;left=0;bottom=0;right=0;collapsible=0;dropTarget=0;fillColor=none;points=[[0,0.5],[1,0.5]];portConstraint=eastwest;fontSize=16;" vertex="1" parent="CHGXnOnzoU2PrAo-i4mN-213">
          <mxGeometry y="50" width="1170" height="87" as="geometry" />
        </mxCell>
        <mxCell id="CHGXnOnzoU2PrAo-i4mN-222" value="Get asset request history" style="shape=partialRectangle;html=1;whiteSpace=wrap;connectable=0;strokeColor=inherit;overflow=hidden;fillColor=none;top=0;left=0;bottom=0;right=0;pointerEvents=1;fontSize=16;align=left;" vertex="1" parent="CHGXnOnzoU2PrAo-i4mN-221">
          <mxGeometry width="192" height="87" as="geometry">
            <mxRectangle width="192" height="87" as="alternateBounds" />
          </mxGeometry>
        </mxCell>
        <mxCell id="CHGXnOnzoU2PrAo-i4mN-223" value="/requests" style="shape=partialRectangle;html=1;whiteSpace=wrap;connectable=0;strokeColor=inherit;overflow=hidden;fillColor=none;top=0;left=0;bottom=0;right=0;pointerEvents=1;fontSize=16;align=left;" vertex="1" parent="CHGXnOnzoU2PrAo-i4mN-221">
          <mxGeometry x="192" width="288" height="87" as="geometry">
            <mxRectangle width="288" height="87" as="alternateBounds" />
          </mxGeometry>
        </mxCell>
        <mxCell id="CHGXnOnzoU2PrAo-i4mN-224" value="GET" style="shape=partialRectangle;html=1;whiteSpace=wrap;connectable=0;strokeColor=inherit;overflow=hidden;fillColor=none;top=0;left=0;bottom=0;right=0;pointerEvents=1;fontSize=16;" vertex="1" parent="CHGXnOnzoU2PrAo-i4mN-221">
          <mxGeometry x="480" width="95" height="87" as="geometry">
            <mxRectangle width="95" height="87" as="alternateBounds" />
          </mxGeometry>
        </mxCell>
        <mxCell id="CHGXnOnzoU2PrAo-i4mN-225" value="&lt;ul&gt;&lt;li&gt;Admin&lt;/li&gt;&lt;li&gt;Asset Manager&lt;/li&gt;&lt;li&gt;Auditor&lt;/li&gt;&lt;/ul&gt;" style="shape=partialRectangle;html=1;whiteSpace=wrap;connectable=0;strokeColor=inherit;overflow=hidden;fillColor=none;top=0;left=0;bottom=0;right=0;pointerEvents=1;fontSize=16;align=left;verticalAlign=bottom;" vertex="1" parent="CHGXnOnzoU2PrAo-i4mN-221">
          <mxGeometry x="575" width="215" height="87" as="geometry">
            <mxRectangle width="215" height="87" as="alternateBounds" />
          </mxGeometry>
        </mxCell>
        <mxCell id="CHGXnOnzoU2PrAo-i4mN-226" value="200(JSON), 401" style="shape=partialRectangle;html=1;whiteSpace=wrap;connectable=0;strokeColor=inherit;overflow=hidden;fillColor=none;top=0;left=0;bottom=0;right=0;pointerEvents=1;fontSize=16;align=left;" vertex="1" parent="CHGXnOnzoU2PrAo-i4mN-221">
          <mxGeometry x="790" width="90" height="87" as="geometry">
            <mxRectangle width="90" height="87" as="alternateBounds" />
          </mxGeometry>
        </mxCell>
        <mxCell id="CHGXnOnzoU2PrAo-i4mN-227" style="shape=partialRectangle;html=1;whiteSpace=wrap;connectable=0;strokeColor=inherit;overflow=hidden;fillColor=none;top=0;left=0;bottom=0;right=0;pointerEvents=1;fontSize=16;align=left;" vertex="1" parent="CHGXnOnzoU2PrAo-i4mN-221">
          <mxGeometry x="880" width="290" height="87" as="geometry">
            <mxRectangle width="290" height="87" as="alternateBounds" />
          </mxGeometry>
        </mxCell>
        <mxCell id="CHGXnOnzoU2PrAo-i4mN-228" style="shape=tableRow;horizontal=0;startSize=0;swimlaneHead=0;swimlaneBody=0;strokeColor=inherit;top=0;left=0;bottom=0;right=0;collapsible=0;dropTarget=0;fillColor=none;points=[[0,0.5],[1,0.5]];portConstraint=eastwest;fontSize=16;" vertex="1" parent="CHGXnOnzoU2PrAo-i4mN-213">
          <mxGeometry y="137" width="1170" height="94" as="geometry" />
        </mxCell>
        <mxCell id="CHGXnOnzoU2PrAo-i4mN-229" value="Get open asset requests" style="shape=partialRectangle;html=1;whiteSpace=wrap;connectable=0;strokeColor=inherit;overflow=hidden;fillColor=none;top=0;left=0;bottom=0;right=0;pointerEvents=1;fontSize=16;align=left;" vertex="1" parent="CHGXnOnzoU2PrAo-i4mN-228">
          <mxGeometry width="192" height="94" as="geometry">
            <mxRectangle width="192" height="94" as="alternateBounds" />
          </mxGeometry>
        </mxCell>
        <mxCell id="CHGXnOnzoU2PrAo-i4mN-230" value="/requests/open" style="shape=partialRectangle;html=1;whiteSpace=wrap;connectable=0;strokeColor=inherit;overflow=hidden;fillColor=none;top=0;left=0;bottom=0;right=0;pointerEvents=1;fontSize=16;align=left;" vertex="1" parent="CHGXnOnzoU2PrAo-i4mN-228">
          <mxGeometry x="192" width="288" height="94" as="geometry">
            <mxRectangle width="288" height="94" as="alternateBounds" />
          </mxGeometry>
        </mxCell>
        <mxCell id="CHGXnOnzoU2PrAo-i4mN-231" value="GET" style="shape=partialRectangle;html=1;whiteSpace=wrap;connectable=0;strokeColor=inherit;overflow=hidden;fillColor=none;top=0;left=0;bottom=0;right=0;pointerEvents=1;fontSize=16;" vertex="1" parent="CHGXnOnzoU2PrAo-i4mN-228">
          <mxGeometry x="480" width="95" height="94" as="geometry">
            <mxRectangle width="95" height="94" as="alternateBounds" />
          </mxGeometry>
        </mxCell>
        <mxCell id="CHGXnOnzoU2PrAo-i4mN-232" value="&lt;ul&gt;&lt;li&gt;Admin&lt;/li&gt;&lt;li&gt;Asset Manager&lt;/li&gt;&lt;li&gt;Auditor&lt;/li&gt;&lt;/ul&gt;" style="shape=partialRectangle;html=1;whiteSpace=wrap;connectable=0;strokeColor=inherit;overflow=hidden;fillColor=none;top=0;left=0;bottom=0;right=0;pointerEvents=1;fontSize=16;align=left;verticalAlign=middle;" vertex="1" parent="CHGXnOnzoU2PrAo-i4mN-228">
          <mxGeometry x="575" width="215" height="94" as="geometry">
            <mxRectangle width="215" height="94" as="alternateBounds" />
          </mxGeometry>
        </mxCell>
        <mxCell id="CHGXnOnzoU2PrAo-i4mN-233" value="200 (JSON), 401" style="shape=partialRectangle;html=1;whiteSpace=wrap;connectable=0;strokeColor=inherit;overflow=hidden;fillColor=none;top=0;left=0;bottom=0;right=0;pointerEvents=1;fontSize=16;align=left;" vertex="1" parent="CHGXnOnzoU2PrAo-i4mN-228">
          <mxGeometry x="790" width="90" height="94" as="geometry">
            <mxRectangle width="90" height="94" as="alternateBounds" />
          </mxGeometry>
        </mxCell>
        <mxCell id="CHGXnOnzoU2PrAo-i4mN-234" value="" style="shape=partialRectangle;html=1;whiteSpace=wrap;connectable=0;strokeColor=inherit;overflow=hidden;fillColor=none;top=0;left=0;bottom=0;right=0;pointerEvents=1;fontSize=16;align=left;" vertex="1" parent="CHGXnOnzoU2PrAo-i4mN-228">
          <mxGeometry x="880" width="290" height="94" as="geometry">
            <mxRectangle width="290" height="94" as="alternateBounds" />
          </mxGeometry>
        </mxCell>
        <mxCell id="CHGXnOnzoU2PrAo-i4mN-235" style="shape=tableRow;horizontal=0;startSize=0;swimlaneHead=0;swimlaneBody=0;strokeColor=inherit;top=0;left=0;bottom=0;right=0;collapsible=0;dropTarget=0;fillColor=none;points=[[0,0.5],[1,0.5]];portConstraint=eastwest;fontSize=16;" vertex="1" parent="CHGXnOnzoU2PrAo-i4mN-213">
          <mxGeometry y="231" width="1170" height="120" as="geometry" />
        </mxCell>
        <mxCell id="CHGXnOnzoU2PrAo-i4mN-236" value="Request asset&amp;nbsp;&lt;div&gt;assignment&lt;/div&gt;" style="shape=partialRectangle;html=1;whiteSpace=wrap;connectable=0;strokeColor=inherit;overflow=hidden;fillColor=none;top=0;left=0;bottom=0;right=0;pointerEvents=1;fontSize=16;align=left;" vertex="1" parent="CHGXnOnzoU2PrAo-i4mN-235">
          <mxGeometry width="192" height="120" as="geometry">
            <mxRectangle width="192" height="120" as="alternateBounds" />
          </mxGeometry>
        </mxCell>
        <mxCell id="CHGXnOnzoU2PrAo-i4mN-237" value="/requests/assets" style="shape=partialRectangle;html=1;whiteSpace=wrap;connectable=0;strokeColor=inherit;overflow=hidden;fillColor=none;top=0;left=0;bottom=0;right=0;pointerEvents=1;fontSize=16;align=left;" vertex="1" parent="CHGXnOnzoU2PrAo-i4mN-235">
          <mxGeometry x="192" width="288" height="120" as="geometry">
            <mxRectangle width="288" height="120" as="alternateBounds" />
          </mxGeometry>
        </mxCell>
        <mxCell id="CHGXnOnzoU2PrAo-i4mN-238" value="POST" style="shape=partialRectangle;html=1;whiteSpace=wrap;connectable=0;strokeColor=inherit;overflow=hidden;fillColor=none;top=0;left=0;bottom=0;right=0;pointerEvents=1;fontSize=16;" vertex="1" parent="CHGXnOnzoU2PrAo-i4mN-235">
          <mxGeometry x="480" width="95" height="120" as="geometry">
            <mxRectangle width="95" height="120" as="alternateBounds" />
          </mxGeometry>
        </mxCell>
        <mxCell id="CHGXnOnzoU2PrAo-i4mN-239" value="&lt;ul&gt;&lt;li&gt;Admin&lt;/li&gt;&lt;li&gt;Asset Manager&lt;/li&gt;&lt;li&gt;Department Manager&lt;/li&gt;&lt;/ul&gt;" style="shape=partialRectangle;html=1;whiteSpace=wrap;connectable=0;strokeColor=inherit;overflow=hidden;fillColor=none;top=0;left=0;bottom=0;right=0;pointerEvents=1;fontSize=16;align=left;verticalAlign=middle;" vertex="1" parent="CHGXnOnzoU2PrAo-i4mN-235">
          <mxGeometry x="575" width="215" height="120" as="geometry">
            <mxRectangle width="215" height="120" as="alternateBounds" />
          </mxGeometry>
        </mxCell>
        <mxCell id="CHGXnOnzoU2PrAo-i4mN-240" value="&lt;div&gt;201, 400, 401&lt;/div&gt;" style="shape=partialRectangle;html=1;whiteSpace=wrap;connectable=0;strokeColor=inherit;overflow=hidden;fillColor=none;top=0;left=0;bottom=0;right=0;pointerEvents=1;fontSize=16;align=left;" vertex="1" parent="CHGXnOnzoU2PrAo-i4mN-235">
          <mxGeometry x="790" width="90" height="120" as="geometry">
            <mxRectangle width="90" height="120" as="alternateBounds" />
          </mxGeometry>
        </mxCell>
        <mxCell id="CHGXnOnzoU2PrAo-i4mN-241" value="{&lt;div&gt;&lt;span style=&quot;white-space: pre;&quot;&gt;&#x9;&lt;/span&gt;AssetID: int&lt;/div&gt;&lt;div&gt;&lt;span style=&quot;white-space: pre;&quot;&gt;&#x9;&lt;/span&gt;EmployeeID: int?&lt;br&gt;&lt;/div&gt;&lt;div&gt;&lt;span style=&quot;white-space: pre;&quot;&gt;&#x9;&lt;/span&gt;DepartmentID: int&lt;/div&gt;&lt;div&gt;&lt;div&gt;}&lt;/div&gt;&lt;/div&gt;" style="shape=partialRectangle;html=1;whiteSpace=wrap;connectable=0;strokeColor=inherit;overflow=hidden;fillColor=none;top=0;left=0;bottom=0;right=0;pointerEvents=1;fontSize=16;align=left;" vertex="1" parent="CHGXnOnzoU2PrAo-i4mN-235">
          <mxGeometry x="880" width="290" height="120" as="geometry">
            <mxRectangle width="290" height="120" as="alternateBounds" />
          </mxGeometry>
        </mxCell>
        <mxCell id="CHGXnOnzoU2PrAo-i4mN-249" style="shape=tableRow;horizontal=0;startSize=0;swimlaneHead=0;swimlaneBody=0;strokeColor=inherit;top=0;left=0;bottom=0;right=0;collapsible=0;dropTarget=0;fillColor=none;points=[[0,0.5],[1,0.5]];portConstraint=eastwest;fontSize=16;" vertex="1" parent="CHGXnOnzoU2PrAo-i4mN-213">
          <mxGeometry y="351" width="1170" height="120" as="geometry" />
        </mxCell>
        <mxCell id="CHGXnOnzoU2PrAo-i4mN-250" value="Request license&amp;nbsp;&lt;div&gt;assignment&lt;/div&gt;" style="shape=partialRectangle;html=1;whiteSpace=wrap;connectable=0;strokeColor=inherit;overflow=hidden;fillColor=none;top=0;left=0;bottom=0;right=0;pointerEvents=1;fontSize=16;align=left;" vertex="1" parent="CHGXnOnzoU2PrAo-i4mN-249">
          <mxGeometry width="192" height="120" as="geometry">
            <mxRectangle width="192" height="120" as="alternateBounds" />
          </mxGeometry>
        </mxCell>
        <mxCell id="CHGXnOnzoU2PrAo-i4mN-251" value="/requests/licenses" style="shape=partialRectangle;html=1;whiteSpace=wrap;connectable=0;strokeColor=inherit;overflow=hidden;fillColor=none;top=0;left=0;bottom=0;right=0;pointerEvents=1;fontSize=16;align=left;" vertex="1" parent="CHGXnOnzoU2PrAo-i4mN-249">
          <mxGeometry x="192" width="288" height="120" as="geometry">
            <mxRectangle width="288" height="120" as="alternateBounds" />
          </mxGeometry>
        </mxCell>
        <mxCell id="CHGXnOnzoU2PrAo-i4mN-252" value="POST" style="shape=partialRectangle;html=1;whiteSpace=wrap;connectable=0;strokeColor=inherit;overflow=hidden;fillColor=none;top=0;left=0;bottom=0;right=0;pointerEvents=1;fontSize=16;" vertex="1" parent="CHGXnOnzoU2PrAo-i4mN-249">
          <mxGeometry x="480" width="95" height="120" as="geometry">
            <mxRectangle width="95" height="120" as="alternateBounds" />
          </mxGeometry>
        </mxCell>
        <mxCell id="CHGXnOnzoU2PrAo-i4mN-253" value="&lt;ul&gt;&lt;li&gt;Admin&lt;/li&gt;&lt;li&gt;Asset Manager&lt;/li&gt;&lt;li&gt;Department Manager&lt;/li&gt;&lt;/ul&gt;" style="shape=partialRectangle;html=1;whiteSpace=wrap;connectable=0;strokeColor=inherit;overflow=hidden;fillColor=none;top=0;left=0;bottom=0;right=0;pointerEvents=1;fontSize=16;align=left;verticalAlign=middle;" vertex="1" parent="CHGXnOnzoU2PrAo-i4mN-249">
          <mxGeometry x="575" width="215" height="120" as="geometry">
            <mxRectangle width="215" height="120" as="alternateBounds" />
          </mxGeometry>
        </mxCell>
        <mxCell id="CHGXnOnzoU2PrAo-i4mN-254" value="201, 400, 401" style="shape=partialRectangle;html=1;whiteSpace=wrap;connectable=0;strokeColor=inherit;overflow=hidden;fillColor=none;top=0;left=0;bottom=0;right=0;pointerEvents=1;fontSize=16;align=left;" vertex="1" parent="CHGXnOnzoU2PrAo-i4mN-249">
          <mxGeometry x="790" width="90" height="120" as="geometry">
            <mxRectangle width="90" height="120" as="alternateBounds" />
          </mxGeometry>
        </mxCell>
        <mxCell id="CHGXnOnzoU2PrAo-i4mN-255" value="{&lt;div&gt;&lt;span style=&quot;white-space: pre;&quot;&gt;&#x9;&lt;/span&gt;SoftwareAssetID: int&lt;/div&gt;&lt;div&gt;&lt;span style=&quot;white-space: pre;&quot;&gt;&#x9;&lt;/span&gt;EmployeeID: int?&lt;br&gt;&lt;/div&gt;&lt;div&gt;&lt;span style=&quot;white-space: pre;&quot;&gt;&#x9;&lt;/span&gt;AssetID: int&lt;/div&gt;&lt;div&gt;}&lt;/div&gt;" style="shape=partialRectangle;html=1;whiteSpace=wrap;connectable=0;strokeColor=inherit;overflow=hidden;fillColor=none;top=0;left=0;bottom=0;right=0;pointerEvents=1;fontSize=16;align=left;" vertex="1" parent="CHGXnOnzoU2PrAo-i4mN-249">
          <mxGeometry x="880" width="290" height="120" as="geometry">
            <mxRectangle width="290" height="120" as="alternateBounds" />
          </mxGeometry>
        </mxCell>
        <mxCell id="CHGXnOnzoU2PrAo-i4mN-242" style="shape=tableRow;horizontal=0;startSize=0;swimlaneHead=0;swimlaneBody=0;strokeColor=inherit;top=0;left=0;bottom=0;right=0;collapsible=0;dropTarget=0;fillColor=none;points=[[0,0.5],[1,0.5]];portConstraint=eastwest;fontSize=16;" vertex="1" parent="CHGXnOnzoU2PrAo-i4mN-213">
          <mxGeometry y="471" width="1170" height="150" as="geometry" />
        </mxCell>
        <mxCell id="CHGXnOnzoU2PrAo-i4mN-243" value="Update / Resolve asset request" style="shape=partialRectangle;html=1;whiteSpace=wrap;connectable=0;strokeColor=inherit;overflow=hidden;fillColor=none;top=0;left=0;bottom=0;right=0;pointerEvents=1;fontSize=16;align=left;" vertex="1" parent="CHGXnOnzoU2PrAo-i4mN-242">
          <mxGeometry width="192" height="150" as="geometry">
            <mxRectangle width="192" height="150" as="alternateBounds" />
          </mxGeometry>
        </mxCell>
        <mxCell id="CHGXnOnzoU2PrAo-i4mN-244" value="/requests/assets/{AssetRequestID}" style="shape=partialRectangle;html=1;whiteSpace=wrap;connectable=0;strokeColor=inherit;overflow=hidden;fillColor=none;top=0;left=0;bottom=0;right=0;pointerEvents=1;fontSize=16;align=left;" vertex="1" parent="CHGXnOnzoU2PrAo-i4mN-242">
          <mxGeometry x="192" width="288" height="150" as="geometry">
            <mxRectangle width="288" height="150" as="alternateBounds" />
          </mxGeometry>
        </mxCell>
        <mxCell id="CHGXnOnzoU2PrAo-i4mN-245" value="PUT" style="shape=partialRectangle;html=1;whiteSpace=wrap;connectable=0;strokeColor=inherit;overflow=hidden;fillColor=none;top=0;left=0;bottom=0;right=0;pointerEvents=1;fontSize=16;" vertex="1" parent="CHGXnOnzoU2PrAo-i4mN-242">
          <mxGeometry x="480" width="95" height="150" as="geometry">
            <mxRectangle width="95" height="150" as="alternateBounds" />
          </mxGeometry>
        </mxCell>
        <mxCell id="CHGXnOnzoU2PrAo-i4mN-246" value="&lt;ul&gt;&lt;li&gt;Admin&lt;/li&gt;&lt;li&gt;Asset Manager&lt;/li&gt;&lt;/ul&gt;" style="shape=partialRectangle;html=1;whiteSpace=wrap;connectable=0;strokeColor=inherit;overflow=hidden;fillColor=none;top=0;left=0;bottom=0;right=0;pointerEvents=1;fontSize=16;align=left;verticalAlign=middle;" vertex="1" parent="CHGXnOnzoU2PrAo-i4mN-242">
          <mxGeometry x="575" width="215" height="150" as="geometry">
            <mxRectangle width="215" height="150" as="alternateBounds" />
          </mxGeometry>
        </mxCell>
        <mxCell id="CHGXnOnzoU2PrAo-i4mN-247" value="204, 400, 401" style="shape=partialRectangle;html=1;whiteSpace=wrap;connectable=0;strokeColor=inherit;overflow=hidden;fillColor=none;top=0;left=0;bottom=0;right=0;pointerEvents=1;fontSize=16;align=left;" vertex="1" parent="CHGXnOnzoU2PrAo-i4mN-242">
          <mxGeometry x="790" width="90" height="150" as="geometry">
            <mxRectangle width="90" height="150" as="alternateBounds" />
          </mxGeometry>
        </mxCell>
        <mxCell id="CHGXnOnzoU2PrAo-i4mN-248" value="{&lt;div&gt;&lt;span style=&quot;white-space: pre;&quot;&gt;&#x9;&lt;/span&gt;&lt;span style=&quot;background-color: transparent; color: light-dark(rgb(0, 0, 0), rgb(255, 255, 255));&quot;&gt;AssetID: int&lt;/span&gt;&lt;/div&gt;&lt;div&gt;&lt;span style=&quot;white-space: pre;&quot;&gt;&#x9;&lt;/span&gt;EmployeeID: int?&lt;br&gt;&lt;/div&gt;&lt;div&gt;&lt;span style=&quot;white-space: pre;&quot;&gt;&#x9;&lt;/span&gt;DepartmentID: int&lt;/div&gt;&lt;div&gt;&lt;span style=&quot;white-space: pre;&quot;&gt;&#x9;&lt;/span&gt;RequestResultID: int&lt;/div&gt;&lt;div&gt;&lt;span style=&quot;white-space: pre;&quot;&gt;&#x9;&lt;/span&gt;RequestNote: string?&lt;br&gt;&lt;/div&gt;&lt;div&gt;}&lt;/div&gt;" style="shape=partialRectangle;html=1;whiteSpace=wrap;connectable=0;strokeColor=inherit;overflow=hidden;fillColor=none;top=0;left=0;bottom=0;right=0;pointerEvents=1;fontSize=16;align=left;" vertex="1" parent="CHGXnOnzoU2PrAo-i4mN-242">
          <mxGeometry x="880" width="290" height="150" as="geometry">
            <mxRectangle width="290" height="150" as="alternateBounds" />
          </mxGeometry>
        </mxCell>
        <mxCell id="CHGXnOnzoU2PrAo-i4mN-256" style="shape=tableRow;horizontal=0;startSize=0;swimlaneHead=0;swimlaneBody=0;strokeColor=inherit;top=0;left=0;bottom=0;right=0;collapsible=0;dropTarget=0;fillColor=none;points=[[0,0.5],[1,0.5]];portConstraint=eastwest;fontSize=16;" vertex="1" parent="CHGXnOnzoU2PrAo-i4mN-213">
          <mxGeometry y="621" width="1170" height="150" as="geometry" />
        </mxCell>
        <mxCell id="CHGXnOnzoU2PrAo-i4mN-257" value="Update / Resolve license request" style="shape=partialRectangle;html=1;whiteSpace=wrap;connectable=0;strokeColor=inherit;overflow=hidden;fillColor=none;top=0;left=0;bottom=0;right=0;pointerEvents=1;fontSize=16;align=left;" vertex="1" parent="CHGXnOnzoU2PrAo-i4mN-256">
          <mxGeometry width="192" height="150" as="geometry">
            <mxRectangle width="192" height="150" as="alternateBounds" />
          </mxGeometry>
        </mxCell>
        <mxCell id="CHGXnOnzoU2PrAo-i4mN-258" value="/requests/licenses/&lt;div&gt;&lt;span style=&quot;white-space: pre;&quot;&gt;&#x9;&lt;/span&gt;{SoftwareLicenseRequestID}&lt;/div&gt;" style="shape=partialRectangle;html=1;whiteSpace=wrap;connectable=0;strokeColor=inherit;overflow=hidden;fillColor=none;top=0;left=0;bottom=0;right=0;pointerEvents=1;fontSize=16;align=left;" vertex="1" parent="CHGXnOnzoU2PrAo-i4mN-256">
          <mxGeometry x="192" width="288" height="150" as="geometry">
            <mxRectangle width="288" height="150" as="alternateBounds" />
          </mxGeometry>
        </mxCell>
        <mxCell id="CHGXnOnzoU2PrAo-i4mN-259" value="PUT" style="shape=partialRectangle;html=1;whiteSpace=wrap;connectable=0;strokeColor=inherit;overflow=hidden;fillColor=none;top=0;left=0;bottom=0;right=0;pointerEvents=1;fontSize=16;" vertex="1" parent="CHGXnOnzoU2PrAo-i4mN-256">
          <mxGeometry x="480" width="95" height="150" as="geometry">
            <mxRectangle width="95" height="150" as="alternateBounds" />
          </mxGeometry>
        </mxCell>
        <mxCell id="CHGXnOnzoU2PrAo-i4mN-260" value="&lt;ul&gt;&lt;li&gt;Admin&lt;/li&gt;&lt;li&gt;Asset Manager&lt;/li&gt;&lt;/ul&gt;" style="shape=partialRectangle;html=1;whiteSpace=wrap;connectable=0;strokeColor=inherit;overflow=hidden;fillColor=none;top=0;left=0;bottom=0;right=0;pointerEvents=1;fontSize=16;align=left;verticalAlign=middle;" vertex="1" parent="CHGXnOnzoU2PrAo-i4mN-256">
          <mxGeometry x="575" width="215" height="150" as="geometry">
            <mxRectangle width="215" height="150" as="alternateBounds" />
          </mxGeometry>
        </mxCell>
        <mxCell id="CHGXnOnzoU2PrAo-i4mN-261" value="204, 400, 401" style="shape=partialRectangle;html=1;whiteSpace=wrap;connectable=0;strokeColor=inherit;overflow=hidden;fillColor=none;top=0;left=0;bottom=0;right=0;pointerEvents=1;fontSize=16;align=left;" vertex="1" parent="CHGXnOnzoU2PrAo-i4mN-256">
          <mxGeometry x="790" width="90" height="150" as="geometry">
            <mxRectangle width="90" height="150" as="alternateBounds" />
          </mxGeometry>
        </mxCell>
        <mxCell id="CHGXnOnzoU2PrAo-i4mN-262" value="{&lt;div&gt;&lt;div&gt;&lt;span style=&quot;white-space: pre;&quot;&gt;&#x9;&lt;/span&gt;SoftwareAssetID: int&lt;/div&gt;&lt;div&gt;&lt;span style=&quot;white-space: pre;&quot;&gt;&#x9;&lt;/span&gt;EmployeeID: int?&lt;br&gt;&lt;/div&gt;&lt;div&gt;&lt;span style=&quot;white-space: pre;&quot;&gt;&#x9;&lt;/span&gt;AssetID: int&lt;/div&gt;&lt;div&gt;&lt;span style=&quot;white-space: pre;&quot;&gt;&#x9;&lt;/span&gt;RequestResultID: int&lt;/div&gt;&lt;div&gt;&lt;span style=&quot;white-space: pre;&quot;&gt;&#x9;&lt;/span&gt;RequestNote: string?&lt;br&gt;&lt;/div&gt;&lt;div&gt;}&lt;/div&gt;&lt;/div&gt;" style="shape=partialRectangle;html=1;whiteSpace=wrap;connectable=0;strokeColor=inherit;overflow=hidden;fillColor=none;top=0;left=0;bottom=0;right=0;pointerEvents=1;fontSize=16;align=left;" vertex="1" parent="CHGXnOnzoU2PrAo-i4mN-256">
          <mxGeometry x="880" width="290" height="150" as="geometry">
            <mxRectangle width="290" height="150" as="alternateBounds" />
          </mxGeometry>
        </mxCell>
      </root>
    </mxGraphModel>
  </diagram>
</mxfile>
